<?xml version="1.0" standalone="no"?>
<!DOCTYPE svg PUBLIC "-//W3C//DTD SVG 20010904//EN"
 "http://www.w3.org/TR/2001/REC-SVG-20010904/DTD/svg10.dtd">
<svg version="1.0" xmlns="http://www.w3.org/2000/svg"
 width="1000.000000pt" height="1000.000000pt" viewBox="0 0 1000.000000 1000.000000"
 preserveAspectRatio="xMidYMid meet">

<g transform="translate(0.000000,1000.000000) scale(0.100000,-0.100000)"
fill="#000000" stroke="none">
<path d="M6120 9287 c3 -2 75 -32 160 -66 321 -130 443 -201 580 -340 209
-212 274 -489 199 -855 -22 -108 -105 -374 -164 -525 -84 -215 -100 -413 -50
-620 23 -97 43 -144 131 -318 57 -112 111 -229 120 -260 30 -104 4 -192 -87
-288 -128 -136 -385 -179 -494 -84 -82 72 -58 181 59 268 41 31 240 121 267
121 3 0 24 7 45 16 l39 17 -45 13 c-152 47 -202 57 -312 62 -275 11 -448 -81
-719 -384 -167 -186 -247 -243 -344 -244 -47 0 -103 14 -130 34 -18 13 -18 14
2 42 31 45 73 132 91 188 23 78 19 243 -8 331 -22 71 -85 200 -119 244 l-18
24 -23 -69 c-53 -161 -113 -246 -216 -305 -66 -37 -92 -38 -33 -1 63 40 115
104 158 192 35 72 36 79 35 180 0 117 -12 223 -23 216 -4 -3 -31 -44 -60 -93
-93 -154 -134 -185 -286 -223 -187 -46 -264 -119 -265 -247 0 -29 -1 -53 -2
-53 -2 0 -59 11 -128 24 -290 57 -695 61 -985 11 -246 -43 -456 -105 -667
-197 -97 -42 -120 -49 -133 -38 -61 51 71 115 435 210 253 66 287 77 376 121
77 38 155 118 190 192 45 101 42 278 -8 387 l-21 45 -14 -50 c-75 -267 -164
-310 -509 -251 -175 30 -232 32 -341 11 -225 -43 -404 -204 -478 -430 -26 -80
-36 -142 -54 -331 -15 -164 -39 -209 -202 -378 -154 -162 -232 -256 -322 -394
-182 -277 -301 -584 -348 -896 -29 -189 -32 -542 -6 -721 84 -570 371 -1035
872 -1409 320 -238 610 -378 1106 -531 101 -31 220 -75 264 -98 153 -79 283
-189 397 -339 170 -224 368 -375 586 -448 84 -29 114 -34 229 -38 124 -4 227
4 347 30 l48 10 -6 67 -7 67 77 22 c108 32 177 69 320 170 213 149 237 161
494 239 16 5 -94 54 -180 80 -79 24 -225 21 -390 -10 -265 -50 -284 -51 -595
-51 -328 0 -423 9 -675 65 -124 27 -364 99 -356 106 2 2 61 -3 133 -12 326
-38 579 -38 1062 0 675 54 1188 187 1506 393 83 54 237 205 287 282 42 65 138
240 132 240 -2 0 -50 -21 -106 -46 -172 -77 -268 -102 -488 -124 -125 -13
-232 -4 -324 26 -58 20 -121 79 -131 124 -23 106 53 225 145 225 48 0 80 -28
122 -108 55 -102 153 -156 300 -165 104 -6 186 9 286 50 112 47 165 103 241
262 52 107 73 140 125 192 93 93 170 138 315 184 69 21 127 37 129 35 6 -6
-65 -40 -179 -84 -122 -48 -216 -107 -264 -165 -46 -58 -52 -71 -65 -161 -6
-44 -14 -90 -17 -103 -5 -21 1 -19 66 23 90 58 138 75 215 75 171 0 312 87
366 226 20 49 24 78 24 168 l0 110 38 34 c21 19 54 67 73 106 37 74 88 255 83
293 -3 21 -7 19 -68 -28 -97 -76 -175 -126 -239 -150 -47 -19 -79 -22 -211
-24 -227 -4 -295 -24 -471 -136 -126 -81 -222 -102 -253 -57 -33 47 -13 219
35 312 46 88 156 189 268 246 l45 22 -25 19 c-13 10 -54 28 -92 40 -60 19 -73
20 -130 10 -68 -13 -168 -58 -207 -94 -83 -74 -121 -154 -122 -252 -1 -93 23
-147 103 -231 67 -69 61 -83 -14 -33 -59 39 -94 80 -125 147 -21 48 -24 64
-20 140 4 73 10 97 37 150 57 112 127 164 271 199 88 22 320 21 525 -2 196
-23 443 -25 540 -6 410 82 666 344 757 776 29 134 31 425 5 560 -22 111 -48
205 -56 205 -3 0 -26 -32 -50 -71 -88 -143 -255 -279 -409 -332 -74 -25 -95
-28 -176 -25 -109 4 -160 25 -184 74 -20 44 -4 100 44 154 45 50 72 62 250
111 84 23 179 56 217 77 180 94 288 288 332 593 15 109 20 309 8 309 -5 0 -29
-42 -55 -93 -26 -51 -61 -106 -78 -122 l-31 -30 35 75 c20 41 48 120 63 175
23 88 26 119 26 250 0 131 -3 162 -27 250 -59 218 -177 403 -330 519 -53 40
-125 80 -132 73 -3 -2 2 -24 10 -48 55 -165 67 -268 41 -355 -42 -142 -231
-170 -296 -44 -35 68 -39 129 -33 548 6 390 6 412 -15 526 -52 278 -174 544
-351 765 -192 240 -439 409 -698 478 -89 24 -118 26 -347 31 -137 2 -248 2
-245 -1z m1307 -977 c98 -232 119 -390 89 -659 -46 -404 -26 -705 58 -868 60
-119 218 -229 345 -240 76 -7 159 17 234 69 33 22 61 37 64 35 3 -3 9 -23 14
-44 15 -65 10 -184 -11 -273 -34 -140 -148 -354 -261 -492 l-39 -47 26 -20
c42 -33 132 -72 196 -85 45 -9 57 -15 46 -23 -29 -24 -120 -63 -248 -108 -241
-84 -362 -159 -547 -340 -68 -66 -123 -118 -123 -115 0 3 13 64 29 135 74 324
110 575 114 782 1 79 3 143 4 143 1 0 10 -14 19 -32 26 -50 103 -126 141 -139
52 -17 99 -3 143 41 68 68 62 140 -14 185 -22 13 -76 37 -119 54 -159 63 -212
98 -296 197 -65 75 -123 194 -152 309 -20 76 -23 116 -23 255 0 146 3 177 27
270 24 97 83 260 151 419 87 203 100 360 56 633 -11 65 -22 130 -26 145 -10
46 54 -70 103 -187z m-4359 -1782 c39 -6 72 -14 72 -17 0 -3 -47 -18 -105 -34
-207 -54 -345 -118 -477 -224 -37 -29 -69 -53 -72 -53 -3 0 3 23 15 51 64 164
169 266 297 289 53 10 160 5 270 -12z m1217 -442 c83 -14 197 -36 254 -50 161
-39 249 -49 338 -36 64 9 179 42 257 75 17 8 17 6 2 -22 -20 -39 -118 -124
-221 -192 -44 -29 -81 -54 -83 -56 -9 -8 224 -153 343 -213 171 -85 325 -105
459 -57 89 31 148 71 274 186 93 84 182 149 206 149 4 0 -7 -19 -26 -42 -82
-100 -110 -206 -74 -276 23 -44 103 -110 150 -123 53 -15 183 -6 227 15 31 16
30 13 -18 -32 -60 -57 -159 -108 -239 -123 -71 -13 -134 0 -234 48 -98 47
-166 53 -275 24 -167 -45 -348 -35 -465 24 -28 14 -129 79 -223 143 -328 221
-376 252 -469 301 -226 119 -525 200 -805 218 -57 3 -103 9 -103 12 0 6 153
41 240 55 70 12 344 -4 485 -28z m2980 -328 c-25 -333 -82 -554 -174 -678 -44
-60 -117 -110 -159 -110 -16 0 -18 6 -12 52 11 80 -7 139 -46 157 -58 26 -106
6 -139 -59 -9 -17 -27 -74 -41 -127 -13 -53 -32 -109 -41 -124 -21 -35 -90
-73 -172 -94 -105 -27 -154 -46 -189 -72 -43 -32 -55 -64 -42 -111 20 -77 101
-141 233 -186 186 -63 650 -67 1002 -10 109 18 303 63 328 76 44 23 23 -3 -40
-50 -150 -111 -309 -178 -505 -214 -215 -39 -611 -26 -869 27 -240 50 -390 35
-578 -59 -39 -20 -71 -33 -71 -30 0 30 116 203 165 247 20 18 20 18 0 13 -47
-12 -217 -38 -221 -33 -3 2 21 28 52 56 63 58 149 106 210 117 21 3 43 9 48
12 9 5 -154 38 -357 72 l-78 13 78 29 c103 39 205 83 273 118 l55 28 -50 7
c-94 13 -168 44 -265 111 -110 77 -180 111 -264 128 l-60 12 97 42 c53 23 132
49 175 57 l79 16 111 -36 c471 -152 787 -35 912 337 l28 82 31 -61 c50 -99
125 -154 188 -138 97 24 223 206 288 418 10 31 20 57 22 57 3 0 2 -42 -2 -92z
m-963 70 c-40 -40 12 -114 100 -145 61 -21 214 -23 262 -4 49 20 40 6 -32 -48
-106 -78 -191 -113 -287 -119 -68 -4 -89 -1 -132 18 -65 28 -83 54 -83 122 0
66 28 112 96 157 47 31 102 45 76 19z m-2512 -8 c315 -38 654 -173 900 -358
95 -72 255 -226 331 -318 191 -234 331 -538 390 -849 19 -101 23 -154 23 -330
1 -246 -19 -379 -84 -579 -44 -134 -47 -140 -73 -149 -13 -5 -17 -13 -12 -28
7 -22 -40 -149 -55 -149 -5 0 -11 15 -15 33 -15 74 -15 74 -59 57 l-26 -9 25
-69 c14 -38 25 -78 25 -88 0 -25 -166 -254 -183 -254 -3 0 -7 13 -10 30 -4 19
1 46 17 82 28 61 58 188 45 188 -4 0 -31 -20 -59 -45 -28 -25 -53 -45 -55 -45
-2 0 -4 51 -3 113 1 95 -3 123 -24 183 -25 71 -92 184 -109 184 -5 0 -9 -10
-9 -22 0 -13 -3 -33 -7 -46 -5 -20 -17 -3 -72 100 -37 68 -84 150 -105 183
-22 33 -64 98 -95 145 -321 495 -812 952 -1346 1255 -27 16 -45 30 -40 31 6 2
60 14 120 27 127 29 293 90 258 95 -26 4 -27 6 -13 32 8 15 6 22 -9 33 -18 11
-8 13 77 12 l97 -1 69 -47 c39 -25 70 -45 71 -44 0 1 8 12 18 24 18 21 18 22
-42 62 -34 23 -61 44 -61 46 0 2 13 18 29 34 42 43 76 105 100 185 12 37 21
72 21 76 0 5 -33 -9 -74 -30 -79 -41 -152 -67 -162 -58 -3 4 4 24 14 45 11 21
25 62 30 91 9 48 8 51 -9 41 -17 -9 -19 -6 -19 31 l0 41 -49 -59 c-49 -59
-116 -102 -159 -102 l-21 0 19 43 c10 23 22 65 25 92 l8 50 -37 -38 c-71 -72
-94 -78 -292 -77 -96 1 -180 -2 -187 -8 -7 -5 -27 -14 -46 -21 -19 -6 -55 -24
-80 -41 -43 -27 -50 -28 -89 -18 -23 6 -42 14 -42 19 0 17 102 61 131 57 21
-3 30 1 37 17 17 38 267 113 462 140 116 16 376 19 490 5z m-560 -215 c-33
-18 -145 -38 -195 -33 l-40 3 40 22 c33 18 56 22 130 22 82 0 88 -1 65 -14z
m-580 -65 l42 -11 -59 -62 c-33 -34 -72 -81 -88 -104 -15 -24 -29 -43 -31 -43
-8 0 -178 51 -181 54 -13 12 244 189 263 182 7 -3 31 -10 54 -16z m894 -11
c-35 -38 -81 -59 -129 -59 -48 0 -44 14 8 30 23 7 62 23 87 36 61 31 69 30 34
-7z m-701 -46 c-21 -27 -41 -50 -44 -53 -13 -10 -69 -111 -75 -134 -9 -38 30
-57 132 -64 106 -6 92 -18 -39 -32 -69 -8 -114 -8 -159 0 -105 18 -101 15 -79
58 29 57 106 146 164 190 43 32 122 80 135 82 2 0 -14 -21 -35 -47z m462 -123
c-16 -16 -25 -30 -19 -30 25 -1 36 -18 25 -39 -10 -18 -21 -21 -72 -21 -62 0
-229 37 -229 50 0 4 20 17 45 29 l45 21 56 -25 c31 -14 60 -25 65 -25 14 0 21
41 9 55 -11 13 -4 15 46 15 l58 0 -29 -30z m110 -154 c20 -15 20 -15 -5 -15
-24 -1 -100 14 -129 25 -11 3 -7 10 15 23 28 18 30 18 64 0 19 -9 44 -24 55
-33z m-1075 -22 c176 -55 323 -109 443 -164 617 -278 1166 -747 1556 -1327 87
-130 139 -222 237 -421 l66 -133 -21 -50 c-43 -104 -200 -312 -288 -382 -25
-20 -27 -18 -47 46 -4 14 -12 17 -28 12 -40 -12 -43 -22 -23 -77 l18 -51 -29
-24 c-53 -43 -188 -130 -263 -169 l-74 -39 34 -8 c19 -5 116 -9 216 -10 l182
-1 6 -28 c8 -34 15 -39 43 -31 18 4 22 13 22 43 0 35 3 38 41 49 23 7 47 15
54 18 13 4 35 -50 35 -84 0 -7 -44 -35 -98 -62 -283 -142 -540 -204 -852 -204
-310 -1 -578 61 -848 197 -177 89 -307 181 -451 320 -292 284 -483 639 -552
1031 -33 183 -33 464 0 649 27 158 91 356 160 496 75 152 63 143 155 119 43
-11 80 -19 81 -17 2 2 6 15 10 29 6 26 4 27 -64 44 -39 9 -71 20 -71 24 0 8
136 189 168 223 29 32 24 32 182 -18z m6100 -338 c-36 -201 -130 -389 -257
-507 -57 -54 -151 -107 -235 -134 -85 -27 -225 -48 -284 -43 l-39 3 95 48
c120 61 252 154 343 244 68 65 131 142 124 150 -2 2 -39 -6 -83 -17 -43 -11
-92 -20 -109 -19 l-30 0 39 22 c159 90 382 257 421 317 26 39 30 22 15 -64z
m-1128 55 c-17 -15 -71 -51 -120 -79 -48 -28 -94 -56 -102 -62 -32 -23 494 13
532 36 4 3 8 1 8 -3 0 -15 -151 -101 -241 -137 -201 -81 -445 -100 -673 -51
-66 14 -124 29 -128 33 -18 18 408 198 607 256 146 43 160 44 117 7z m-1018
-735 c33 -12 92 -31 130 -41 l69 -19 -39 -13 c-78 -27 -251 -55 -344 -56 -101
-1 -200 19 -200 39 0 17 67 74 108 91 90 38 173 37 276 -1z m-104 -354 c91
-45 94 -55 100 -332 l5 -235 30 -53 c40 -73 125 -148 214 -191 62 -29 88 -35
159 -39 110 -6 163 6 360 85 90 35 167 63 173 61 5 -2 -15 -22 -45 -46 -77
-62 -188 -181 -287 -308 -117 -151 -141 -168 -240 -173 -92 -4 -157 14 -212
60 -34 28 -74 86 -65 94 2 2 44 -3 93 -11 93 -16 159 -13 191 10 16 12 13 15
-37 29 -67 20 -123 56 -213 136 -114 103 -139 116 -226 116 -150 0 -265 -89
-335 -260 l-22 -55 -6 137 c-11 234 -52 370 -140 462 l-42 43 91 -5 c50 -3
108 -13 129 -21 21 -9 39 -15 41 -13 2 1 -42 63 -96 137 -55 73 -98 135 -97
137 2 1 26 -1 55 -6 59 -9 59 -13 -11 68 -44 51 -100 162 -95 186 2 14 9 11
33 -14 50 -52 167 -139 217 -161 59 -26 132 -40 175 -33 24 4 38 14 49 35 14
27 14 34 0 75 -9 25 -27 60 -40 78 -14 18 -22 35 -19 39 9 9 53 -3 113 -32z
m-549 -839 c51 -359 -128 -646 -524 -839 -51 -25 -123 -54 -161 -66 l-69 -21
57 -35 c31 -19 55 -37 52 -40 -25 -24 -662 -51 -831 -35 l-90 9 75 22 c279 83
590 241 807 409 73 57 84 62 108 53 47 -18 107 -11 170 19 132 63 251 246 342
525 40 123 47 123 64 -1z m-205 -119 c-17 -86 -46 -149 -91 -202 -38 -44 -115
-96 -157 -106 -23 -5 -20 1 28 46 71 67 161 201 199 298 35 87 44 71 21 -36z
m-816 -9 c-17 -45 -42 -89 -85 -151 l-42 -61 70 18 c39 10 73 16 75 14 8 -8
-86 -69 -156 -102 -81 -38 -185 -67 -277 -77 l-60 -7 79 46 c154 89 328 233
376 311 25 40 33 44 20 9z m210 -248 c0 -25 -47 -70 -169 -159 -64 -48 -91
-59 -91 -35 0 6 -3 21 -6 33 -5 18 8 28 83 72 48 28 104 64 123 81 42 37 60
39 60 8z m894 -147 c-25 -72 -29 -178 -10 -238 31 -94 128 -177 251 -215 45
-14 93 -24 210 -43 l40 -6 -30 -12 c-17 -7 -87 -32 -155 -54 -376 -125 -848
-179 -1337 -153 -224 12 -497 42 -510 55 -4 3 15 6 41 6 63 0 379 27 536 46
207 24 442 77 484 107 17 12 9 17 -75 47 l-94 34 59 8 c154 20 350 166 548
405 28 35 53 62 54 60 2 -1 -4 -23 -12 -47z m-1291 -1312 c38 -21 73 -38 78
-38 4 0 -1 21 -11 46 l-20 46 22 -5 c127 -32 385 -69 578 -83 74 -6 88 -9 65
-15 -71 -19 -250 -39 -344 -39 -55 0 -101 -3 -101 -6 0 -3 16 -39 35 -80 40
-88 43 -87 -90 -25 -151 70 -394 243 -427 304 -10 20 16 7 215 -105z"/>
<path d="M3540 5164 c-13 -22 -12 -27 1 -35 9 -4 39 -24 68 -44 29 -19 56 -35
60 -35 12 0 33 42 24 50 -16 16 -127 90 -133 90 -4 0 -13 -12 -20 -26z"/>
<path d="M3862 5139 c-7 -12 -12 -22 -10 -24 2 -2 32 -26 68 -54 65 -51 65
-51 82 -30 10 12 15 25 13 30 -9 13 -122 99 -132 99 -4 0 -14 -9 -21 -21z"/>
<path d="M3756 5018 c-9 -12 -12 -25 -8 -28 4 -4 35 -28 68 -53 59 -44 62 -45
78 -28 9 10 16 22 16 27 0 9 -121 104 -133 104 -3 0 -13 -10 -21 -22z"/>
<path d="M4076 4982 c-9 -10 -16 -23 -15 -28 0 -9 111 -106 127 -112 10 -3 34
37 27 47 -3 5 -31 32 -64 60 -56 48 -59 50 -75 33z"/>
<path d="M3965 4858 c-15 -22 -14 -25 47 -80 l63 -56 23 21 22 21 -52 45 c-84
74 -84 75 -103 49z"/>
<path d="M4277 4802 c-9 -10 -17 -22 -17 -27 0 -4 26 -34 59 -66 l58 -58 21
22 22 23 -63 62 c-61 60 -64 62 -80 44z"/>
<path d="M4156 4682 c-16 -19 -14 -22 46 -80 58 -56 64 -60 80 -45 10 9 18 19
18 24 0 8 -106 112 -119 117 -4 1 -15 -6 -25 -16z"/>
<path d="M4456 4601 c-16 -18 -14 -21 36 -77 29 -33 54 -61 55 -63 5 -7 54 22
51 31 -6 17 -104 127 -114 127 -6 1 -19 -7 -28 -18z"/>
<path d="M4346 4491 c-18 -20 -17 -22 22 -69 63 -75 69 -79 93 -56 20 20 19
20 -32 80 -29 32 -55 60 -59 62 -3 1 -15 -6 -24 -17z"/>
<path d="M4635 4400 c-17 -18 -16 -21 31 -85 48 -65 67 -75 87 -43 9 13 1 30
-39 82 -27 36 -52 65 -55 66 -3 0 -14 -9 -24 -20z"/>
<path d="M4518 4296 c-10 -7 -18 -16 -18 -20 0 -4 21 -35 47 -69 25 -34 48
-63 49 -65 4 -6 44 23 44 31 0 11 -92 137 -99 137 -3 0 -14 -7 -23 -14z"/>
<path d="M4798 4189 c-23 -13 -23 -23 0 -57 11 -15 31 -46 46 -69 27 -41 29
-42 52 -26 13 8 24 19 24 24 0 11 -92 139 -99 139 -3 0 -14 -5 -23 -11z"/>
<path d="M4671 4083 l-21 -18 45 -67 c25 -38 49 -68 53 -68 5 0 17 6 27 14 19
13 17 17 -28 85 -26 39 -49 71 -51 71 -2 0 -13 -8 -25 -17z"/>
<path d="M4938 3969 c-26 -14 -23 -25 25 -106 l42 -71 28 14 c15 8 27 17 27
21 0 16 -83 153 -93 153 -7 0 -20 -5 -29 -11z"/>
<path d="M4810 3862 l-23 -18 44 -76 44 -76 28 14 c15 8 27 17 27 20 0 17 -81
154 -91 154 -4 0 -17 -8 -29 -18z"/>
<path d="M5063 3733 c-19 -7 -17 -16 21 -99 35 -75 48 -85 81 -60 18 13 17 16
-18 90 -35 75 -47 84 -84 69z"/>
<path d="M4938 3634 l-28 -15 40 -79 40 -79 30 11 c17 5 30 13 28 17 -33 79
-73 161 -77 161 -3 -1 -18 -8 -33 -16z"/>
<path d="M5177 3489 c-20 -12 -19 -21 24 -116 l28 -62 31 10 c17 6 30 14 28
18 -2 4 -16 41 -32 84 -29 79 -41 88 -79 66z"/>
<path d="M5047 3398 c-15 -6 -27 -13 -25 -17 2 -4 16 -42 32 -84 28 -75 30
-78 55 -72 14 4 29 10 34 14 7 7 -46 149 -61 162 -4 4 -20 2 -35 -3z"/>
<path d="M2217 4904 c-4 -4 -7 -17 -7 -29 0 -18 12 -25 77 -44 79 -23 97 -19
90 19 -4 22 -144 70 -160 54z"/>
<path d="M2460 4805 c-6 -15 -9 -29 -8 -29 2 -1 37 -17 78 -35 70 -30 75 -31
87 -15 26 36 23 39 -134 101 -7 3 -17 -7 -23 -22z"/>
<path d="M1937 4784 c-4 -4 -7 -17 -7 -29 0 -19 10 -24 81 -40 69 -16 82 -17
90 -4 21 33 10 45 -53 58 -35 7 -72 15 -83 18 -11 2 -24 1 -28 -3z"/>
<path d="M2192 4700 l-11 -29 81 -27 c66 -22 82 -24 89 -13 20 32 9 46 -48 64
-32 10 -68 22 -80 26 -18 7 -23 3 -31 -21z"/>
<path d="M2702 4696 c-10 -22 -7 -25 65 -61 73 -36 77 -37 90 -20 7 11 13 22
13 27 0 8 -133 78 -148 78 -5 0 -14 -11 -20 -24z"/>
<path d="M2439 4614 c-5 -15 -8 -28 -7 -29 2 -2 37 -17 78 -34 70 -30 75 -31
87 -15 20 27 16 41 -14 52 -16 6 -52 20 -81 31 l-52 21 -11 -26z"/>
<path d="M2937 4573 c-9 -20 -9 -27 0 -30 7 -3 40 -22 74 -44 57 -38 62 -39
75 -22 7 10 13 23 14 28 0 9 -130 95 -144 95 -4 0 -12 -12 -19 -27z"/>
<path d="M2682 4505 c-13 -28 -18 -23 77 -73 61 -33 65 -34 78 -16 7 10 12 23
10 28 -3 9 -134 85 -148 86 -3 0 -11 -11 -17 -25z"/>
<path d="M3164 4434 c-16 -23 -16 -27 -2 -35 8 -5 39 -27 69 -49 29 -22 56
-40 60 -40 7 0 34 49 28 53 -2 2 -34 24 -71 50 l-67 47 -17 -26z"/>
<path d="M2918 4375 c-6 -14 -9 -27 -7 -28 19 -16 129 -87 135 -87 7 0 33 31
34 41 0 6 -87 66 -128 88 -20 10 -23 9 -34 -14z"/>
<path d="M3378 4275 c-17 -22 -16 -23 49 -80 l65 -58 19 24 19 24 -43 38 c-23
20 -53 46 -67 56 -25 18 -25 18 -42 -4z"/>
<path d="M3140 4224 c-9 -16 -11 -28 -4 -32 5 -4 36 -27 68 -51 l59 -44 17 23
c17 22 16 24 -14 49 -38 33 -103 81 -109 81 -2 0 -10 -12 -17 -26z"/>
<path d="M3575 4100 c-19 -21 -18 -22 43 -83 l62 -62 22 23 22 22 -59 60 c-33
33 -62 60 -66 60 -3 0 -14 -9 -24 -20z"/>
<path d="M3346 4061 c-17 -19 -16 -22 46 -80 l63 -59 23 21 24 22 -64 57 c-34
32 -66 58 -69 58 -3 0 -14 -9 -23 -19z"/>
<path d="M3763 3908 l-21 -23 57 -63 57 -63 23 18 23 19 -57 67 c-32 37 -58
67 -59 67 -2 0 -12 -10 -23 -22z"/>
<path d="M3542 3877 l-21 -22 61 -63 61 -63 20 20 20 20 -57 65 c-32 37 -59
66 -60 66 -1 0 -12 -10 -24 -23z"/>
<path d="M3927 3703 c-14 -17 -12 -23 34 -86 43 -58 52 -66 69 -57 10 6 21 14
24 19 6 9 -90 141 -103 141 -4 0 -15 -8 -24 -17z"/>
<path d="M3723 3678 l-21 -23 49 -62 c27 -35 53 -63 57 -63 5 0 17 6 27 14 18
13 17 17 -35 85 -30 39 -55 71 -55 71 -1 0 -11 -10 -22 -22z"/>
<path d="M4083 3487 l-23 -13 43 -69 c24 -38 47 -70 53 -72 5 -2 18 3 29 11
18 13 17 16 -24 85 -24 39 -46 71 -50 71 -3 -1 -16 -6 -28 -13z"/>
<path d="M3877 3462 c-15 -17 -13 -23 29 -87 25 -39 47 -71 48 -72 1 -1 12 6
25 16 l24 18 -46 72 c-26 39 -50 71 -55 71 -5 0 -16 -8 -25 -18z"/>
<path d="M4219 3261 l-23 -18 37 -77 c21 -42 40 -76 42 -76 12 0 55 24 55 31
0 12 -71 148 -80 154 -4 3 -18 -3 -31 -14z"/>
<path d="M4018 3236 c-16 -12 -15 -17 15 -77 48 -94 44 -90 73 -77 31 14 28
31 -18 111 -35 59 -43 64 -70 43z"/>
<path d="M4335 3028 c-11 -6 -22 -12 -24 -14 -1 -1 12 -39 30 -84 31 -76 35
-81 59 -75 14 4 28 9 32 13 8 8 -55 165 -68 169 -5 1 -18 -3 -29 -9z"/>
<path d="M4143 3008 c-30 -14 -29 -19 9 -106 30 -68 34 -73 58 -67 14 4 28 9
31 13 8 8 -59 172 -69 171 -4 0 -17 -5 -29 -11z"/>
<path d="M5513 9203 c3 -5 65 -45 137 -89 136 -82 190 -127 298 -251 89 -103
144 -131 335 -174 190 -41 345 -144 467 -309 29 -39 53 -70 54 -70 5 0 -45
287 -55 320 -20 61 -80 173 -120 224 -131 164 -347 275 -637 327 -131 23 -490
40 -479 22z m685 -264 c84 -33 149 -74 130 -81 -21 -8 -137 9 -156 23 -34 26
-92 83 -92 92 0 10 22 4 118 -34z"/>
<path d="M270 2373 l0 -27 -20 22 c-29 31 -78 30 -86 -2 -6 -25 1 -46 15 -46
4 0 7 10 7 23 -1 32 34 34 64 2 32 -34 40 -32 40 15 0 22 -4 40 -10 40 -5 0
-10 -12 -10 -27z"/>
<path d="M222 2288 c-5 -7 -12 -22 -14 -33 -4 -18 -6 -17 -18 8 -14 30 -33 38
-23 10 11 -31 46 -63 69 -63 23 0 54 24 54 41 0 39 -46 64 -68 37z m43 -34 c0
-10 -8 -20 -17 -22 -18 -3 -26 27 -11 42 12 11 28 0 28 -20z"/>
<path d="M235 2180 c-4 -6 -16 -8 -26 -5 -35 11 -69 -42 -39 -60 20 -12 93
-15 107 -4 18 15 16 44 -3 63 -18 19 -30 20 -39 6z m-27 -37 c-4 -22 -22 -20
-26 1 -2 10 3 16 13 16 10 0 15 -7 13 -17z m60 0 c-2 -10 -10 -18 -18 -18 -8
0 -16 8 -18 18 -2 12 3 17 18 17 15 0 20 -5 18 -17z"/>
<path d="M222 2068 c-5 -7 -12 -22 -14 -33 -4 -18 -6 -17 -18 8 -14 30 -33 38
-23 10 11 -31 46 -63 69 -63 23 0 54 24 54 41 0 39 -46 64 -68 37z m43 -34 c0
-10 -8 -20 -17 -22 -18 -3 -26 27 -11 42 12 11 28 0 28 -20z"/>
<path d="M160 1935 c0 -25 5 -45 10 -45 6 0 10 14 10 30 0 17 2 30 4 30 2 0
25 -9 51 -20 53 -23 55 -23 55 -11 0 7 -108 61 -124 61 -3 0 -6 -20 -6 -45z"/>
<path d="M235 1871 c-3 -5 -21 -8 -40 -5 -48 6 -46 -17 2 -51 47 -32 63 -32
63 0 0 16 6 25 15 25 8 0 15 7 15 16 0 8 -4 13 -9 9 -5 -3 -12 -1 -16 5 -8 13
-22 13 -30 1z m-6 -30 c7 -5 12 -14 9 -21 -2 -8 -11 -5 -28 9 -17 14 -20 20
-10 21 8 0 21 -4 29 -9z"/>
<path d="M235 1760 c-4 -6 -16 -8 -26 -5 -35 11 -69 -42 -39 -60 20 -12 93
-15 107 -4 18 15 16 44 -3 63 -18 19 -30 20 -39 6z m-27 -37 c-4 -22 -22 -20
-26 1 -2 10 3 16 13 16 10 0 15 -7 13 -17z m60 0 c-2 -10 -10 -18 -18 -18 -8
0 -16 8 -18 18 -2 12 3 17 18 17 15 0 20 -5 18 -17z"/>
<path d="M237 1654 c-3 -4 -20 -7 -38 -8 -46 -2 -46 -20 -2 -50 47 -33 63 -33
63 -1 0 16 6 25 15 25 8 0 15 7 15 15 0 9 -6 12 -15 9 -8 -4 -15 -1 -15 5 0
12 -13 15 -23 5z m0 -39 c9 -25 -2 -27 -28 -6 l-24 20 23 1 c12 0 25 -7 29
-15z"/>
<path d="M160 1516 c0 -24 5 -36 14 -36 8 0 20 -2 28 -5 8 -3 18 6 25 26 14
37 38 34 38 -4 -1 -15 3 -27 7 -27 16 0 21 31 9 56 -15 33 -51 29 -69 -9 -14
-29 -32 -28 -32 3 0 10 -4 22 -10 25 -6 4 -10 -8 -10 -29z"/>
<path d="M190 1449 c0 -5 -4 -7 -10 -4 -5 3 -10 2 -10 -4 0 -5 6 -12 13 -15 9
-5 9 -7 0 -12 -10 -4 -9 -9 2 -20 8 -9 20 -12 26 -8 6 3 14 1 18 -5 5 -8 15
-9 31 -3 19 7 21 10 7 15 -23 9 -22 28 1 20 12 -4 11 0 -7 17 -18 18 -25 20
-32 9 -6 -11 -9 -10 -15 4 -7 19 -24 23 -24 6z m45 -39 c-3 -5 -10 -10 -16
-10 -5 0 -9 5 -9 10 0 6 7 10 16 10 8 0 12 -4 9 -10z"/>
<path d="M140 1280 c0 -6 38 -10 95 -10 57 0 95 4 95 10 0 6 -38 10 -95 10
-57 0 -95 -4 -95 -10z"/>
<path d="M261 1189 c-22 -18 -25 -19 -42 -3 -11 10 -22 14 -27 10 -4 -4 4 -16
17 -27 l23 -19 -46 0 c-34 0 -46 -4 -46 -15 0 -12 15 -15 75 -15 60 0 75 3 75
15 0 9 -9 15 -22 15 l-23 0 24 19 c13 10 22 23 20 29 -2 6 -14 3 -28 -9z"/>
<path d="M190 1081 c0 -27 27 -51 55 -51 24 0 45 25 45 54 0 25 -18 19 -22 -6
-2 -17 -10 -23 -28 -23 -18 0 -26 6 -28 23 -4 27 -22 30 -22 3z"/>
<path d="M206 994 c-19 -18 -20 -28 -6 -55 21 -39 90 -16 90 30 0 16 -30 41
-50 41 -10 0 -26 -7 -34 -16z m59 -29 c0 -22 -31 -33 -47 -17 -17 17 -1 44 24
40 15 -2 23 -10 23 -23z"/>
<path d="M190 900 c0 -5 -7 -10 -15 -10 -8 0 -15 -4 -15 -10 0 -5 6 -10 14
-10 8 0 17 -6 20 -12 5 -10 7 -10 12 0 3 6 21 12 40 12 34 0 56 22 39 38 -4 4
-10 1 -12 -5 -5 -15 -63 -18 -63 -3 0 6 -4 10 -10 10 -5 0 -10 -4 -10 -10z"/>
<path d="M212 810 c-19 -34 -35 -34 -40 -2 -5 30 -22 28 -22 -2 0 -50 54 -61
77 -16 17 34 38 32 38 -3 -1 -32 18 -31 23 2 8 53 -49 69 -76 21z"/>
<path d="M200 675 c-22 -26 3 -65 40 -65 35 0 58 36 45 67 -7 16 -9 15 -13 -7
-6 -40 -22 -48 -22 -12 0 25 -4 32 -19 32 -10 0 -24 -7 -31 -15z m30 -26 c0
-11 -4 -17 -10 -14 -5 3 -10 13 -10 21 0 8 5 14 10 14 6 0 10 -9 10 -21z"/>
<path d="M197 561 c-8 -22 -18 -31 -34 -31 -14 0 -23 -6 -23 -15 0 -23 138
-22 147 2 10 26 -19 68 -50 71 -24 3 -30 -2 -40 -27z m57 3 c28 -11 18 -34
-14 -34 -18 0 -30 5 -30 13 0 25 15 32 44 21z"/>
<path d="M206 464 c-19 -18 -20 -28 -6 -55 21 -39 90 -16 90 30 0 16 -30 41
-50 41 -10 0 -26 -7 -34 -16z m59 -29 c0 -22 -31 -33 -47 -17 -17 17 -1 44 24
40 15 -2 23 -10 23 -23z"/>
<path d="M140 350 c0 -5 11 -10 25 -10 15 0 25 -6 25 -14 0 -45 73 -62 92 -22
20 45 6 56 -72 56 -40 0 -70 -4 -70 -10z m128 -27 c-2 -12 -12 -18 -28 -18
-16 0 -26 6 -28 18 -3 13 3 17 28 17 25 0 31 -4 28 -17z"/>
<path d="M220 246 c-36 -13 -66 -29 -68 -37 -1 -9 20 -21 68 -35 38 -12 70
-17 70 -12 0 6 -9 12 -20 15 -14 4 -20 14 -20 34 0 22 5 29 20 29 11 0 20 7
20 15 0 8 -1 15 -2 14 -2 0 -32 -11 -68 -23z m8 -51 c-7 -7 -48 7 -48 15 0 15
45 16 48 2 2 -8 2 -15 0 -17z"/>
</g>
</svg>
