<?xml version="1.0" standalone="no"?>
<!DOCTYPE svg PUBLIC "-//W3C//DTD SVG 20010904//EN"
 "http://www.w3.org/TR/2001/REC-SVG-20010904/DTD/svg10.dtd">
<svg version="1.0" xmlns="http://www.w3.org/2000/svg"
 width="500.000000pt" height="500.000000pt" viewBox="0 0 500.000000 500.000000"
 preserveAspectRatio="xMidYMid meet">

<g transform="translate(0.000000,500.000000) scale(0.100000,-0.100000)"
fill="#000000" stroke="none">
<path d="M1337 4453 c-3 -5 6 -9 20 -10 19 -1 22 1 12 8 -17 11 -26 11 -32 2z"/>
<path d="M1385 4400 c40 -252 30 -462 -46 -988 -17 -118 -29 -216 -26 -218 5
-5 61 259 77 361 42 280 53 622 24 761 -17 83 -39 146 -29 84z"/>
<path d="M1646 4345 c-59 -21 -108 -65 -139 -127 -31 -61 -46 -155 -29 -184
11 -18 11 -18 12 2 0 12 12 38 26 59 42 63 91 98 154 109 29 5 27 3 -15 -14
-50 -20 -103 -62 -130 -104 -8 -12 -20 -49 -26 -80 -9 -52 -8 -64 11 -112 27
-65 41 -68 143 -25 37 16 67 27 67 25 0 -10 -146 -74 -168 -74 -30 0 -24 -21
10 -37 47 -23 157 16 291 104 79 52 114 94 137 165 16 49 40 76 40 46 1 -22
55 -137 78 -163 12 -14 31 -25 42 -25 27 0 27 49 0 81 l-20 24 17 -37 c9 -21
14 -41 10 -45 -13 -13 -55 39 -87 109 -32 69 -32 71 -16 105 14 30 15 36 1 49
-8 9 -15 20 -15 26 0 6 -7 7 -17 3 -10 -4 -24 -8 -30 -8 -7 0 -13 -5 -13 -11
0 -6 -5 -3 -11 6 -18 32 -97 78 -159 94 -92 23 -167 6 -234 -55 l-30 -26 16
25 c8 14 39 37 68 53 96 50 233 28 313 -49 46 -45 49 -28 5 22 -67 75 -199
106 -302 69z m127 -132 c-13 -2 -33 -2 -45 0 -13 2 -3 4 22 4 25 0 35 -2 23
-4z m54 -9 c-3 -3 -12 -4 -19 -1 -8 3 -5 6 6 6 11 1 17 -2 13 -5z"/>
<path d="M1322 4140 c-1 -91 -6 -264 -12 -385 -19 -453 -19 -444 -10 -380 18
130 31 443 28 680 -3 202 -4 219 -6 85z"/>
<path d="M3864 4235 c-44 -20 -58 -39 -44 -64 15 -29 25 -26 65 14 55 55 45
79 -21 50z m33 -11 c-3 -3 -12 -4 -19 -1 -8 3 -5 6 6 6 11 1 17 -2 13 -5z
m-47 -24 c0 -5 5 -10 11 -10 5 0 7 5 4 10 -3 6 -1 10 5 10 24 0 2 -25 -23 -27
-19 -1 -24 2 -20 13 6 16 23 19 23 4z"/>
<path d="M3727 4146 c-36 -33 -47 -50 -44 -68 2 -12 2 -17 0 -10 -3 7 -8 10
-12 8 -4 -3 -13 0 -21 5 -12 7 -11 10 8 15 29 8 22 30 -9 27 -22 -2 -21 0 6
13 l30 15 -30 -6 c-48 -10 -120 -65 -85 -65 5 0 15 9 22 20 15 23 28 26 28 6
0 -8 -9 -18 -20 -21 -23 -7 -26 -21 -7 -28 8 -4 9 -6 0 -6 -6 -1 -19 6 -28 16
-14 14 -18 14 -27 2 -7 -10 -7 -7 -3 10 5 17 4 21 -5 16 -8 -5 -10 -19 -6 -38
6 -30 6 -30 -10 -12 -8 11 -13 15 -10 9 3 -6 -15 -31 -41 -55 -33 -32 -42 -37
-33 -19 12 22 8 21 -26 -10 -22 -19 -34 -36 -27 -38 13 -4 26 -32 18 -40 -3
-4 -32 -7 -64 -8 -51 -1 -62 -5 -91 -33 -18 -17 -36 -31 -41 -31 -4 0 -15 -8
-25 -17 -10 -10 -21 -18 -26 -18 -5 0 -13 -7 -18 -15 -5 -8 -10 -11 -10 -7 0
16 -40 -14 -40 -31 0 -14 -2 -15 -10 -2 -8 13 -10 12 -15 -1 -3 -9 -21 -22
-40 -29 -38 -15 -42 -24 -21 -45 12 -12 15 -12 20 0 3 8 11 15 18 15 9 0 9 -3
-2 -10 -12 -8 -13 -11 -1 -19 11 -7 11 -9 0 -14 -10 -4 -11 -8 -3 -14 6 -4 14
-18 18 -30 7 -23 36 -40 36 -21 0 6 9 3 20 -7 11 -10 20 -23 19 -29 0 -6 -3
-6 -6 2 -5 14 -23 17 -23 3 0 -5 16 -26 35 -47 19 -21 35 -33 35 -27 0 7 -4
15 -10 18 -5 3 -10 15 -10 26 0 10 5 19 10 19 6 0 10 9 10 20 0 11 5 20 11 20
8 0 9 -12 5 -37 -12 -69 -13 -98 -3 -111 5 -7 7 -15 4 -18 -3 -3 -13 8 -21 25
-9 16 -38 56 -64 88 -27 32 -57 71 -68 88 -10 16 -29 40 -41 53 -13 14 -20 29
-16 35 3 6 1 7 -6 3 -7 -4 -43 19 -89 56 -138 114 -300 218 -392 251 -44 15
-234 32 -195 16 11 -4 45 -8 75 -8 30 -1 71 -5 89 -11 93 -26 359 -206 440
-297 74 -82 78 -87 91 -113 7 -14 28 -44 46 -67 35 -43 46 -66 18 -39 -8 9
-20 13 -26 10 -6 -4 -8 -2 -5 3 4 6 -4 27 -18 47 -14 20 -25 42 -25 49 0 8 -4
6 -11 -3 -9 -13 -10 -13 -7 0 3 8 1 19 -4 25 -5 5 -14 18 -21 27 -12 18 -62
15 -51 -3 3 -5 -2 -6 -10 -3 -9 3 -16 1 -16 -4 0 -6 -8 -13 -17 -15 -10 -3 0
-4 21 -3 28 2 42 9 47 22 7 19 8 19 8 0 1 -10 9 -25 19 -32 14 -10 15 -15 5
-25 -11 -11 -13 -10 -13 4 0 9 -5 17 -11 17 -6 0 -9 -7 -5 -15 8 -22 -7 -18
-21 4 -10 17 -18 18 -45 11 -23 -7 -34 -6 -40 3 -6 9 -8 8 -8 -3 0 -9 -10 -16
-24 -16 -13 -1 -38 -9 -57 -17 -51 -23 -102 -38 -107 -32 -3 3 4 15 16 28 30
32 62 106 62 147 0 46 -28 97 -71 129 l-34 26 32 -37 c70 -82 64 -167 -17
-252 -48 -50 -73 -58 -50 -17 25 48 -1 16 -45 -54 -30 -48 -54 -77 -68 -79
-36 -8 -334 -15 -340 -9 -4 3 3 23 13 44 11 21 20 49 20 61 -1 16 -7 7 -20
-26 -26 -67 -29 -67 -27 0 2 51 -1 59 -20 69 -20 11 -21 12 -3 22 46 29 100
173 96 256 -1 29 -16 39 -16 10 0 -16 -154 -173 -170 -173 -8 0 -30 68 -30 93
0 9 7 20 15 24 25 14 105 94 117 117 6 11 -16 -5 -49 -37 -70 -68 -95 -86
-183 -131 -85 -43 -154 -59 -200 -47 -33 10 -34 9 -15 -5 15 -12 34 -14 80
-10 60 6 62 5 95 -29 18 -19 30 -38 26 -42 -15 -16 -77 -6 -108 17 l-33 24 16
-24 c25 -38 95 -88 142 -101 32 -9 56 -9 98 0 92 18 96 13 100 -114 3 -87 -7
-117 -64 -187 -60 -75 -67 -62 -130 227 -3 12 -5 7 -6 -12 -1 -35 41 -210 59
-243 5 -10 10 -23 10 -28 0 -15 -33 -24 -41 -11 -8 13 -29 3 -29 -14 0 -8 3
-8 9 2 5 8 11 9 15 3 3 -5 -4 -17 -17 -25 -28 -19 -88 -79 -156 -156 -29 -34
-60 -60 -70 -60 -14 1 -13 2 2 6 9 2 14 9 11 15 -4 6 -2 8 4 4 6 -3 13 6 17
24 4 16 11 30 16 30 5 0 9 7 9 15 0 8 -8 15 -17 15 -13 0 -14 3 -6 11 16 16
44 4 37 -16 -4 -8 -1 -15 6 -15 8 0 10 9 6 24 -4 16 0 28 11 37 15 13 15 12 4
-8 -15 -29 -5 -29 24 -1 l23 22 -34 18 c-39 20 -53 23 -37 7 6 -6 9 -18 6 -25
-8 -22 -41 -16 -49 8 -6 20 -7 20 -16 3 -8 -12 -7 -20 3 -27 9 -6 3 -7 -18 -3
-26 5 -35 2 -45 -14 -7 -12 -18 -21 -25 -21 -7 0 -13 -6 -13 -12 0 -9 -4 -8
-10 2 -8 12 -10 11 -10 -7 0 -16 -4 -21 -15 -17 -11 5 -15 -1 -15 -20 0 -14 5
-26 10 -26 6 0 10 5 10 10 0 6 3 9 8 9 4 -1 14 -1 22 0 13 1 13 2 0 11 -13 8
-13 10 1 10 9 0 24 -9 34 -20 17 -19 17 -20 1 -20 -9 0 -15 -4 -11 -9 10 -18
-33 -33 -56 -21 -27 15 -36 6 -15 -15 12 -12 16 -13 16 -3 1 7 7 -2 15 -19 8
-18 19 -33 25 -33 7 0 5 7 -4 16 -20 19 -21 34 -2 34 17 0 27 -45 13 -59 -15
-15 -27 -14 -27 2 0 20 -57 70 -70 62 -7 -4 -4 -17 10 -40 13 -21 17 -36 10
-40 -5 -3 -10 1 -10 10 0 11 -5 15 -14 12 -10 -4 -13 1 -12 17 2 18 -1 22 -16
18 -10 -2 -18 1 -18 7 0 6 6 11 14 11 19 0 56 52 56 78 0 22 -81 102 -130 127
-18 9 -56 19 -85 22 -48 5 -54 3 -69 -19 -21 -32 -5 -83 35 -107 18 -11 25
-21 20 -30 -7 -10 -13 -11 -31 -1 -12 6 -34 9 -48 5 l-27 -6 23 16 c30 22 28
40 -2 20 -31 -20 -63 -6 -72 31 -8 29 1 41 36 47 21 4 20 4 -7 6 -23 1 -35 -5
-43 -20 -16 -29 5 -77 36 -85 25 -6 31 -19 14 -29 -5 -3 -10 -11 -10 -17 0 -6
8 -4 18 5 26 23 79 22 91 -2 10 -19 6 -31 -12 -31 -5 0 -6 8 -3 18 6 16 5 16
-8 0 -7 -10 -24 -18 -38 -18 -24 0 -77 -44 -66 -55 3 -3 11 1 17 9 7 8 20 12
28 9 12 -5 14 -3 8 7 -6 10 -4 12 9 7 10 -4 29 -10 43 -13 16 -4 22 -11 19
-21 -3 -8 -6 -19 -6 -25 0 -6 -9 -8 -20 -5 -11 3 -18 2 -15 -2 2 -4 -24 -9
-58 -10 -88 -2 -87 -2 -83 -25 2 -12 6 -20 9 -18 4 1 12 2 17 2 6 0 9 5 8 12
-2 6 13 15 32 19 38 8 58 2 22 -8 -12 -3 -22 -11 -22 -18 0 -7 -7 -15 -15 -19
-8 -3 -15 -11 -14 -18 0 -10 2 -10 6 0 2 6 9 10 14 7 10 -7 -12 -45 -26 -45
-18 0 -46 38 -32 43 17 6 7 14 -26 22 -21 6 -27 4 -27 -9 0 -9 -7 -16 -15 -16
-8 0 -15 -7 -15 -16 0 -8 4 -12 10 -9 5 3 10 1 10 -5 0 -7 6 -8 19 0 25 13 34
13 26 0 -3 -5 1 -10 9 -10 9 0 16 -4 16 -8 0 -5 -13 -7 -28 -4 -28 4 -112 -26
-112 -40 0 -11 16 -10 62 4 27 8 35 14 26 20 -8 6 3 8 29 5 24 -2 40 0 37 4
-8 14 10 11 24 -3 10 -10 15 -10 20 -1 10 15 94 53 104 47 4 -3 8 0 8 6 0 6 4
8 10 5 6 -3 7 1 4 9 -4 11 0 16 11 16 9 0 13 -5 10 -10 -4 -7 3 -9 22 -5 47
11 53 14 53 27 0 9 -3 9 -12 0 -7 -7 -16 -12 -22 -12 -5 0 -1 7 10 15 18 14
18 14 -8 15 -17 0 -26 -5 -24 -12 1 -7 1 -10 -1 -7 -2 4 -30 1 -61 -7 -77 -18
-92 -18 -63 2 13 9 42 17 65 18 22 2 51 8 63 14 18 10 27 10 43 0 30 -19 32
-35 9 -80 -14 -28 -20 -54 -17 -84 3 -41 2 -44 -22 -44 -20 0 -22 2 -10 10 12
8 11 10 -7 10 -13 0 -23 5 -23 11 0 6 7 9 15 5 8 -3 15 -1 15 4 0 6 -4 10 -10
10 -5 0 -10 5 -10 10 0 17 28 11 33 -7 2 -10 3 -6 1 8 -2 14 2 31 9 38 8 8 8
11 -1 11 -7 0 -12 -4 -12 -9 0 -5 -20 -17 -45 -28 -25 -10 -45 -22 -45 -26 0
-5 -10 -5 -22 -2 -18 5 -20 4 -8 -4 9 -6 10 -11 3 -11 -6 0 -20 -3 -30 -6 -15
-5 -16 -4 -3 6 13 10 13 11 0 7 -8 -2 -14 -11 -12 -19 2 -15 -14 -25 -76 -48
-40 -15 -50 -29 -17 -22 14 2 25 9 25 14 0 6 11 7 26 4 15 -4 32 -2 40 5 12
10 13 9 8 -5 -5 -12 -2 -15 9 -10 9 3 14 11 11 19 -6 15 39 29 68 19 14 -4 18
-2 14 5 -4 6 -3 11 3 11 15 0 24 -20 9 -21 -7 -1 -20 -3 -28 -4 -8 -1 -23 -3
-32 -4 -10 0 -18 -8 -18 -16 0 -14 -14 -19 -47 -18 -7 0 -18 -12 -25 -28 -13
-30 -32 -37 -44 -17 -5 8 -2 9 9 5 11 -4 17 -1 17 8 0 12 -9 11 -51 -6 -73
-28 -90 -39 -84 -50 4 -5 11 -9 16 -9 6 0 7 5 4 10 -4 6 -3 10 2 9 4 -2 20 4
36 11 22 11 32 11 50 1 13 -7 27 -11 33 -10 12 4 67 -26 84 -45 7 -10 27 -16
49 -15 20 0 55 -3 79 -6 45 -7 57 6 22 25 -21 11 -41 10 -51 -4 -4 -4 -9 -3
-13 3 -4 6 4 13 19 17 14 3 25 10 25 15 0 5 -11 4 -25 -1 -16 -6 -25 -6 -25 1
0 19 34 22 62 6 38 -22 48 -21 48 3 0 11 7 20 15 20 8 0 15 -6 15 -12 0 -9 3
-9 8 -3 4 6 14 10 22 10 8 0 21 6 28 15 8 8 11 9 7 3 -6 -13 7 -11 50 7 11 5
56 21 100 36 44 15 92 33 107 41 23 11 40 11 115 -2 158 -28 382 -17 424 21
27 24 33 73 19 155 -10 59 -10 73 1 80 10 6 11 9 2 9 -7 0 -13 7 -13 15 0 11
8 9 35 -10 20 -13 57 -33 83 -45 26 -12 53 -25 61 -29 8 -4 23 -32 34 -62 15
-45 17 -62 8 -99 -10 -42 -14 -89 -12 -118 1 -19 21 -4 21 16 0 41 53 82 143
112 102 34 138 54 186 104 44 46 36 45 -36 -1 -73 -47 -159 -82 -199 -83 -26
0 -35 6 -48 34 -9 19 -16 36 -16 39 0 2 29 7 64 9 35 3 74 13 87 22 14 9 32
13 46 10 22 -6 119 23 110 32 -2 2 -30 -1 -63 -7 -61 -11 -188 -4 -179 11 3 5
37 21 75 36 39 15 70 31 70 36 0 4 -29 8 -65 8 -68 0 -87 14 -35 25 49 11 43
22 -22 44 -35 12 -71 28 -81 36 -18 13 -17 15 9 44 26 29 28 30 46 14 21 -19
16 -32 -6 -14 -11 10 -17 7 -30 -11 -24 -34 -3 -35 57 -3 75 40 80 45 62 59
-24 17 200 11 305 -8 105 -19 112 -19 77 0 -46 25 -155 44 -255 44 -85 0 -94
2 -99 20 -3 11 -12 20 -19 20 -8 0 -14 5 -14 10 0 6 2 10 5 10 9 0 50 -25 57
-35 4 -5 14 -2 26 8 10 9 25 17 32 17 9 0 7 -5 -6 -14 -10 -8 -16 -17 -13 -21
7 -6 49 10 87 34 32 20 10 32 -48 26 l-45 -4 38 11 c28 7 46 7 64 -1 20 -9 29
-8 52 8 20 15 52 22 122 27 106 7 129 14 48 14 -69 0 -89 12 -59 33 12 8 20
20 17 25 -4 5 0 9 7 9 8 0 12 -6 9 -13 -3 -7 21 1 52 18 37 20 54 35 51 44
-11 28 33 -10 45 -39 7 -16 34 -47 62 -70 27 -23 60 -64 74 -90 18 -36 34 -53
66 -68 26 -12 32 -18 17 -15 -119 22 -161 15 -141 -22 6 -11 11 -25 11 -31 0
-5 -36 -29 -79 -52 -44 -23 -92 -53 -108 -65 -16 -14 13 -3 72 27 146 75 146
76 139 104 -6 25 -5 25 54 25 39 0 78 -7 108 -21 59 -25 54 -20 60 -58 l5 -31
-60 0 c-32 0 -66 -3 -75 -6 -30 -12 -16 -19 29 -16 83 7 106 -7 119 -73 3 -16
15 -66 26 -110 21 -83 25 -121 30 -290 3 -119 17 -88 19 42 1 66 4 84 19 93
14 10 14 11 1 6 -14 -4 -18 6 -24 51 -4 30 -13 78 -22 105 -8 28 -12 59 -10
69 3 10 1 19 -4 21 -5 2 -14 39 -20 83 -7 44 -15 82 -18 85 -3 3 -12 17 -20
32 -10 20 -30 32 -81 48 -60 19 -70 26 -91 63 -12 23 -49 70 -81 104 -32 34
-58 64 -58 65 0 2 -4 18 -9 36 -6 20 -6 30 0 27 10 -7 58 25 59 38 0 5 -4 5
-10 2 -5 -3 -10 -1 -10 4 0 6 6 11 13 11 8 0 22 9 32 20 10 11 23 20 28 20 6
0 1 -9 -11 -20 -32 -30 -27 -35 7 -8 36 28 34 44 -5 40 -16 -2 -26 -1 -22 3
12 12 78 13 71 1 -3 -6 0 -5 8 2 16 15 33 16 23 0 -4 -7 -3 -8 4 -4 6 4 9 13
6 20 -3 9 5 16 23 21 15 3 45 24 65 46 30 32 33 39 17 39 -10 0 -19 -6 -19
-13 0 -8 -9 -22 -21 -33 l-21 -19 18 37 c11 21 26 38 35 38 10 0 20 12 24 28
4 15 9 22 12 15 2 -7 12 -10 21 -7 9 2 7 -1 -5 -7 -31 -16 -29 -30 2 -16 14 7
25 17 25 23 0 6 9 19 20 29 16 14 17 20 8 26 -8 5 -1 8 17 6 23 -2 32 4 42 24
7 15 24 30 37 33 14 3 29 18 36 36 7 16 17 30 22 30 21 0 138 137 138 163 0
16 -21 5 -30 -15 -7 -18 -9 -19 -9 -5 -1 21 -10 21 -36 0 -17 -13 -17 -15 -2
-9 11 3 16 2 12 -5 -4 -5 -2 -16 5 -24 9 -11 7 -16 -9 -25 -13 -6 -27 -7 -37
-2 -14 8 -13 10 2 23 16 12 17 12 11 -3 -7 -20 8 -25 19 -7 13 21 -20 29 -41
10 -11 -10 -27 -20 -35 -23 -10 -3 -8 -6 8 -10 14 -4 20 -2 15 4 -3 7 -1 8 6
4 19 -12 1 -28 -25 -22 -13 4 -24 2 -24 -3 0 -6 -7 -8 -15 -5 -9 4 -15 0 -15
-9 0 -24 -19 -31 -27 -10 -4 10 -11 22 -17 26 -7 5 -4 6 7 3 21 -7 57 9 57 25
0 6 -7 9 -15 5 -11 -4 -15 2 -14 22 1 17 3 20 6 10 2 -10 11 -18 19 -18 24 0
55 20 49 31 -4 5 -3 8 2 7 8 -3 13 5 13 23 0 5 -4 7 -10 4 -6 -3 -7 1 -4 10 6
14 8 14 18 1 9 -13 16 -11 44 14 32 30 43 48 20 34 -7 -5 -26 -7 -43 -6 -24 2
-33 -3 -48 -29 -9 -17 -15 -35 -11 -40 3 -5 0 -9 -5 -9 -6 0 -11 5 -11 11 0 6
-7 9 -15 5 -10 -3 -17 3 -21 20 -4 14 -4 28 0 31 3 4 6 -1 6 -10 0 -9 5 -17
11 -17 7 0 9 10 4 27 -5 23 -4 25 9 14 13 -11 17 -11 21 1 3 8 26 30 51 48 52
40 57 60 14 60 -16 0 -30 5 -30 10 0 6 7 10 15 10 8 0 15 5 15 10 0 21 -28 8
-73 -34z m42 -18 l12 -33 -22 21 c-12 12 -18 27 -15 33 10 16 13 14 25 -21z
m36 3 c3 -5 1 -12 -5 -16 -5 -3 -10 1 -10 9 0 18 6 21 15 7z m-67 -26 c-3 -3
-9 2 -12 12 -6 14 -5 15 5 6 7 -7 10 -15 7 -18z m-31 -17 c-3 -8 -6 -5 -6 6
-1 11 2 17 5 13 3 -3 4 -12 1 -19z m33 -15 c0 -5 -5 -15 -10 -23 -8 -12 -10
-11 -10 8 0 12 5 22 10 22 6 0 10 -3 10 -7z m65 -62 c-3 -6 -11 -11 -17 -11
-6 0 -6 6 2 15 14 17 26 13 15 -4z m-292 0 c2 8 4 2 3 -13 0 -14 -5 -26 -11
-25 -5 1 -14 -8 -20 -21 -12 -27 -29 -24 -33 6 -3 18 1 21 19 20 12 -2 24 4
27 12 5 13 3 13 -11 1 -19 -15 -23 -1 -5 17 9 9 14 9 19 1 4 -8 8 -7 12 2z
m-88 -71 c-3 -5 -10 -10 -16 -10 -5 0 -9 5 -9 10 0 6 7 10 16 10 8 0 12 -4 9
-10z m12 -56 c-3 -3 -12 -4 -19 -1 -8 3 -5 6 6 6 11 1 17 -2 13 -5z m-161 -47
c1 -17 0 -24 -3 -15 -2 9 -10 15 -18 12 -8 -3 -11 -12 -8 -20 4 -10 0 -12 -12
-8 -14 6 -13 10 11 35 15 16 28 29 28 29 1 0 2 -15 2 -33z m364 12 c0 -5 -4
-9 -10 -9 -5 0 -10 7 -10 16 0 8 5 12 10 9 6 -3 10 -10 10 -16z m95 -16 c-3
-16 -11 -32 -17 -38 -7 -7 -8 -3 -3 14 5 17 4 22 -6 19 -8 -3 -13 -12 -13 -20
1 -10 -5 -14 -17 -11 -16 5 -14 10 17 34 45 36 48 36 39 2z m-1609 -87 c-30
-103 -128 -196 -219 -210 -49 -8 -87 -1 -132 22 l-30 16 49 7 c41 7 54 5 74
-12 35 -27 50 -24 23 5 l-23 25 40 20 41 21 21 -31 c12 -16 24 -28 27 -25 3 2
-2 15 -11 28 -9 12 -16 27 -16 33 1 5 24 28 52 50 27 22 64 59 81 83 37 52 44
42 23 -32z m1075 55 c-7 -5 -11 -13 -7 -19 3 -6 2 -13 -4 -17 -5 -3 -10 2 -10
13 0 21 8 32 24 32 6 0 5 -4 -3 -9z m429 -16 c0 -8 -4 -15 -10 -15 -5 0 -10 7
-10 15 0 8 5 15 10 15 6 0 10 -7 10 -15z m42 -10 c0 -5 -5 -11 -11 -13 -6 -2
-11 4 -11 13 0 9 5 15 11 13 6 -2 11 -8 11 -13z m-512 -15 c0 -5 -5 -10 -11
-10 -5 0 -7 5 -4 10 3 6 8 10 11 10 2 0 4 -4 4 -10z m-1223 -105 c-1 -2 -20
-12 -43 -23 l-41 -21 -38 39 c-21 22 -37 41 -34 42 2 2 31 17 64 33 l60 30 17
-49 c10 -27 17 -50 15 -51z m1700 73 c-3 -7 -5 -2 -5 12 0 14 2 19 5 13 2 -7
2 -19 0 -25z m-494 -5 c-7 -2 -19 -2 -25 0 -7 3 -2 5 12 5 14 0 19 -2 13 -5z
m492 -22 c-3 -2 -11 1 -18 7 -8 7 -18 8 -22 4 -5 -4 -5 -1 -1 5 5 10 11 10 26
1 11 -7 17 -14 15 -17z m-76 -25 c8 -10 9 -16 1 -21 -5 -3 -10 0 -10 9 0 8 -6
17 -12 19 -8 4 -9 6 -2 6 6 1 17 -5 23 -13z m-74 -56 c-3 -5 -10 -10 -16 -10
-5 0 -9 5 -9 10 0 6 7 10 16 10 8 0 12 -4 9 -10z m-30 -29 c3 -5 1 -12 -5 -16
-5 -3 -10 1 -10 9 0 18 6 21 15 7z m-575 -31 c0 -5 -9 -10 -20 -10 -11 0 -20
-4 -20 -10 0 -5 -15 -10 -32 -10 -18 0 -40 -5 -48 -11 -12 -8 -9 -9 11 -5 16
4 31 1 38 -8 13 -16 5 -26 -23 -27 -13 -1 -7 -5 14 -10 19 -5 45 -6 58 -4 12
3 22 1 22 -5 0 -5 -6 -10 -12 -10 -9 0 -8 -4 2 -11 12 -9 11 -10 -5 -4 -11 4
-64 19 -117 34 l-98 26 73 25 c39 14 75 24 79 23 4 -2 19 4 35 12 33 17 43 19
43 5z m98 -35 c-3 -3 -9 2 -12 12 -6 14 -5 15 5 6 7 -7 10 -15 7 -18z m391
-25 c0 -10 -3 -8 -9 5 -5 11 -9 15 -9 8 -1 -7 -8 -10 -16 -7 -14 6 -13 8 2 19
19 14 33 4 32 -25z m-489 20 c0 -5 -5 -10 -10 -10 -6 0 -10 -8 -8 -17 2 -13
-4 -19 -22 -20 -21 -2 -22 -1 -6 5 15 7 17 10 6 17 -10 6 -9 11 5 22 22 16 35
17 35 3z m532 -2 c-9 -9 -15 -9 -24 0 -9 9 -7 12 12 12 19 0 21 -3 12 -12z
m-137 -8 c3 -6 -1 -7 -9 -4 -18 7 -21 14 -7 14 6 0 13 -4 16 -10z m-267 -78
c3 -27 7 -31 33 -30 23 1 27 4 18 15 -7 8 -8 13 -1 13 5 0 12 -7 16 -15 3 -8
11 -15 17 -15 7 0 5 10 -6 26 -26 40 -12 38 22 -4 l30 -37 -131 0 c-72 0 -138
4 -147 8 -12 6 -23 1 -38 -14 -16 -17 -21 -19 -21 -7 0 8 10 20 23 26 20 10
19 11 -13 10 -19 0 -48 3 -63 7 -20 5 -27 4 -25 -5 2 -7 -4 -15 -12 -17 -12
-4 -12 -3 -2 5 11 7 10 10 -3 16 -22 8 -93 8 -125 -1 l-25 -7 25 -7 c23 -7 24
-7 3 -8 -17 -1 -21 -5 -16 -18 6 -15 5 -16 -9 -3 -11 11 -13 17 -4 23 6 5 -7
6 -29 2 -22 -3 -45 -13 -51 -21 -16 -20 -26 -17 -15 5 12 22 65 43 88 34 10
-4 14 -2 10 4 -5 8 35 10 135 8 189 -5 193 -5 179 -15 -9 -5 -8 -9 4 -14 27
-10 31 -7 30 21 0 14 6 28 13 30 8 3 12 -6 12 -26 0 -28 3 -31 30 -31 29 0 29
1 24 41 -5 32 -3 40 7 37 8 -3 15 -19 17 -36z m182 1 c-11 -17 -11 -17 -6 0 3
10 6 24 7 30 0 9 2 9 5 0 3 -7 0 -20 -6 -30z m-550 -39 c0 -14 -3 -14 -15 -4
-8 7 -15 14 -15 16 0 2 7 4 15 4 8 0 15 -7 15 -16z m-442 -5 c63 1 130 -2 149
-5 l33 -6 -25 -26 c-14 -13 -25 -28 -25 -33 0 -4 -6 -14 -13 -21 -7 -7 -35
-47 -62 -88 -60 -92 -97 -140 -108 -140 -5 0 8 20 29 45 34 42 36 48 24 70
-13 24 -8 55 8 55 5 0 7 -11 4 -25 -2 -15 0 -25 7 -25 12 0 81 102 81 120 0 6
5 8 10 5 6 -3 10 -1 10 4 0 18 -28 13 -39 -6 -5 -10 -13 -15 -17 -11 -4 4 -1
14 6 23 13 16 8 18 -27 9 -14 -4 -24 -17 -28 -35 -6 -25 -10 -28 -36 -22 -18
3 -29 1 -29 -6 0 -6 3 -10 8 -10 4 1 21 1 37 0 l30 -1 -30 -16 c-27 -14 -31
-14 -41 0 -12 17 -54 22 -54 7 0 -4 -11 -7 -24 -6 -17 2 -26 -3 -29 -16 -3
-10 -13 -19 -22 -19 -18 0 -54 -38 -55 -57 0 -16 -46 -46 -73 -48 -12 -1 -23
-7 -25 -13 -4 -14 -22 -16 -22 -3 0 5 21 20 48 32 51 25 73 46 97 97 9 17 18
32 21 32 3 0 2 -5 -2 -12 -4 -7 -3 -8 4 -4 6 4 9 13 6 20 -3 8 4 32 15 55 21
41 28 68 11 41 -7 -11 -10 -11 -10 -2 0 23 21 53 32 46 6 -4 63 -6 126 -5z
m1032 -9 c0 -5 -4 -10 -10 -10 -5 0 -10 5 -10 10 0 6 5 10 10 10 6 0 10 -4 10
-10z m-695 -10 c18 -8 17 -9 -7 -9 -15 -1 -30 4 -33 9 -7 12 12 12 40 0z m70
-8 c-3 -3 -11 0 -18 7 -9 10 -8 11 6 5 10 -3 15 -9 12 -12z m250 8 c3 -5 1
-10 -4 -10 -6 0 -11 5 -11 10 0 6 2 10 4 10 3 0 8 -4 11 -10z m-150 -27 c11
-7 14 -13 7 -13 -7 0 -10 -4 -7 -10 3 -6 -4 -10 -17 -10 -17 0 -19 3 -9 9 11
7 9 11 -8 20 -11 7 -21 16 -21 21 0 11 26 3 55 -17z m310 7 c94 0 103 -2 108
-20 6 -25 -7 -34 -30 -21 -10 6 -12 11 -5 11 23 0 12 20 -12 20 -14 0 -28 -4
-31 -10 -3 -5 -23 -10 -43 -9 -31 0 -34 2 -17 10 15 6 7 8 -28 5 -26 -1 -50 1
-53 6 -3 5 -13 7 -21 4 -8 -4 -11 -1 -8 5 4 6 14 8 22 5 8 -3 61 -6 118 -6z
m-408 -12 c22 -36 0 -52 -67 -50 -29 0 -31 -1 -14 -8 12 -5 25 -14 30 -21 4
-7 3 -10 -2 -7 -5 2 -26 12 -46 22 -21 9 -38 18 -38 19 0 1 19 3 43 4 61 3 89
12 84 26 -2 6 -14 14 -28 18 -24 7 -24 7 3 8 15 1 30 -5 35 -11z m213 -3 c-7
-9 -15 -13 -17 -11 -7 7 7 26 19 26 6 0 6 -6 -2 -15z m247 -31 c-3 -3 -12 -4
-19 -1 -8 3 -5 6 6 6 11 1 17 -2 13 -5z m-440 -30 c-3 -3 -12 -4 -19 -1 -8 3
-5 6 6 6 11 1 17 -2 13 -5z m37 -44 c-3 -2 -9 2 -14 10 -5 8 -12 11 -15 8 -16
-16 9 -30 42 -23 26 5 33 3 27 -6 -5 -9 -2 -10 10 -6 11 4 15 3 10 -4 -4 -6 0
-15 7 -20 12 -8 11 -12 -4 -23 -12 -9 -14 -15 -6 -18 7 -2 10 -10 7 -18 -3
-11 -11 -8 -30 13 -25 27 -48 35 -48 18 0 -5 -24 -3 -52 5 -29 7 -74 14 -100
14 -52 0 -78 7 -78 22 0 5 4 7 9 4 10 -7 111 -17 159 -16 17 0 32 -4 32 -9 0
-6 12 -8 29 -5 16 3 32 1 35 -5 7 -11 36 -4 36 9 0 5 -10 12 -22 15 -48 15
-88 38 -88 51 0 8 7 14 15 14 8 0 15 6 15 13 1 6 7 1 15 -13 7 -14 11 -27 9
-30z m67 36 c-7 -8 -21 -12 -34 -8 -22 6 -22 6 3 13 39 11 43 10 31 -5z m229
4 c-8 -5 -19 -10 -25 -10 -5 0 -3 5 5 10 8 5 20 10 25 10 6 0 3 -5 -5 -10z
m-375 -20 c3 -5 1 -10 -4 -10 -6 0 -11 5 -11 10 0 6 2 10 4 10 3 0 8 -4 11
-10z m215 0 c22 -7 21 -8 -12 -9 -21 -1 -38 4 -38 9 0 11 14 11 50 0z m95 -10
c15 -7 9 -9 -25 -9 -33 -1 -41 2 -30 9 18 12 28 12 55 0z m82 -6 c-3 -3 -12
-4 -19 -1 -8 3 -5 6 6 6 11 1 17 -2 13 -5z m-894 -10 c10 -11 -5 -34 -22 -34
-14 1 -14 2 2 14 14 11 15 15 5 19 -7 3 -8 6 -2 6 6 1 13 -2 17 -5z m760 -30
c26 -4 47 -10 47 -14 0 -10 -115 6 -136 19 -17 11 -15 11 11 7 17 -3 51 -9 78
-12z m-813 -32 c0 -7 -4 -10 -10 -7 -5 3 -10 16 -10 28 0 18 2 19 10 7 5 -8
10 -21 10 -28z m-22 -57 c-3 -3 -16 -1 -29 4 l-24 10 23 0 c19 1 22 5 17 29
-4 22 -3 21 7 -6 6 -18 9 -35 6 -37z m502 35 c0 -25 -21 -39 -45 -29 -19 7
-19 8 2 8 30 1 39 20 17 36 -18 13 -18 14 4 8 12 -3 22 -13 22 -23z m-372 -30
c-7 -17 -19 -30 -25 -30 -7 0 -13 -10 -13 -22 0 -17 3 -19 9 -9 11 17 31 6 31
-17 0 -10 7 -27 15 -40 13 -18 14 -21 1 -16 -8 3 -17 17 -21 32 -5 19 -9 22
-13 12 -3 -8 -10 -18 -16 -22 -7 -5 -6 -8 4 -8 12 0 15 -14 15 -62 0 -35 3
-78 7 -95 7 -31 5 -34 -28 -48 -20 -8 -33 -19 -29 -25 4 -7 -2 -9 -19 -4 -20
5 -26 2 -26 -11 0 -9 -4 -14 -9 -10 -5 3 -28 -2 -51 -11 -30 -12 -38 -19 -28
-25 10 -7 8 -9 -6 -9 -12 0 -16 -5 -12 -15 3 -8 -3 -19 -12 -25 -22 -15 -3 -9
65 20 49 21 62 40 27 40 -8 0 -13 -4 -10 -9 4 -5 -3 -7 -15 -4 -19 5 -19 7 -5
15 9 5 24 8 34 6 9 -1 23 2 31 6 11 7 13 5 8 -7 -4 -10 -2 -16 6 -14 7 1 12
-9 12 -23 0 -20 -9 -30 -45 -47 -45 -21 -123 -40 -192 -47 -45 -4 -48 1 -11
15 19 7 23 13 15 21 -8 8 -19 8 -41 -2 -17 -7 -30 -15 -29 -19 2 -16 -3 -22
-12 -16 -8 5 -7 11 1 21 7 9 8 14 1 14 -21 0 -42 -12 -36 -21 3 -5 -5 -9 -18
-9 -25 -1 -64 -25 -51 -32 4 -3 2 -3 -4 -2 -7 2 -20 1 -29 -3 -13 -5 -13 -8
-2 -15 9 -6 6 -7 -9 -3 -13 3 -23 3 -23 -2 0 -4 -15 -9 -33 -10 l-32 -2 35 15
c20 8 74 35 120 59 47 25 166 86 265 136 158 80 180 94 176 112 -2 12 -4 48
-4 80 -1 56 -9 72 -21 42 -3 -8 -12 -15 -21 -15 -8 0 -15 7 -15 15 0 8 9 15
20 15 11 0 20 2 20 4 0 2 3 11 6 20 4 12 0 16 -15 16 -15 0 -21 6 -21 21 0 14
5 19 14 16 10 -4 17 4 21 24 7 30 47 81 53 66 2 -4 -2 -21 -10 -37z m-38 25
c0 -17 -36 -39 -50 -30 -19 12 -11 38 10 32 11 -3 20 -1 20 4 0 5 5 9 10 9 6
0 10 -7 10 -15z m725 5 c-3 -5 -12 -10 -18 -10 -7 0 -6 4 3 10 19 12 23 12 15
0z m-285 -20 c0 -5 -4 -10 -9 -10 -5 0 -11 -8 -13 -17 -2 -15 -10 -17 -43 -12
-37 6 -38 6 -8 8 21 0 37 8 45 21 14 21 28 27 28 10z m80 -10 c0 -5 -13 -10
-29 -10 -17 0 -33 -4 -36 -10 -3 -5 1 -10 9 -10 9 0 16 -9 16 -20 0 -11 -4
-20 -10 -20 -5 0 -10 6 -10 14 0 8 -5 16 -11 18 -25 8 10 48 41 48 17 0 30 -4
30 -10z m-260 -10 c0 -5 -5 -10 -11 -10 -5 0 -7 5 -4 10 3 6 8 10 11 10 2 0 4
-4 4 -10z m75 0 c-3 -5 -19 -10 -36 -10 -16 0 -29 5 -29 10 0 6 16 10 36 10
21 0 33 -4 29 -10z m-451 -10 c16 0 37 -45 30 -64 -3 -8 -14 -16 -23 -19 -17
-4 -17 -2 -5 22 8 14 14 29 14 32 0 14 -33 19 -47 8 -11 -10 -18 -8 -31 6 -9
10 -12 15 -5 11 6 -3 15 -1 18 5 4 5 14 8 22 5 8 -3 20 -6 27 -6z m-646 -29
c56 -29 81 -61 88 -114 5 -33 3 -47 -5 -47 -6 0 -10 10 -7 23 7 37 -7 51 -40
40 -23 -8 -25 -11 -11 -16 9 -3 17 -2 17 3 0 6 5 10 10 10 6 0 10 -11 10 -25
0 -23 -2 -24 -21 -15 -29 16 -38 3 -10 -16 13 -9 21 -25 20 -37 -2 -37 1 -48
11 -42 6 4 7 11 4 17 -4 7 -2 8 4 4 15 -9 4 -36 -15 -36 -8 0 -19 14 -25 31
-9 27 -12 29 -20 15 -7 -13 -5 -23 7 -36 9 -10 14 -24 10 -29 -7 -12 8 -15 19
-3 4 4 20 7 36 7 30 0 29 -11 -2 -33 -10 -7 -18 -19 -18 -26 0 -14 -48 -51
-56 -43 -3 2 0 16 5 30 11 27 6 68 -10 99 -5 10 -8 40 -6 68 2 27 0 51 -6 53
-6 2 -5 11 2 26 7 12 11 27 8 34 -2 7 -9 2 -16 -11 -15 -27 -46 -28 -88 -2
-37 22 -52 62 -32 86 17 20 82 13 137 -15z m1332 19 c0 -5 -7 -10 -15 -10 -8
0 -15 5 -15 10 0 6 7 10 15 10 8 0 15 -4 15 -10z m-805 -10 c22 -8 24 -13 15
-29 -5 -11 -10 -22 -10 -25 0 -10 50 -7 71 4 13 7 19 7 19 0 0 -5 -6 -10 -12
-10 -9 0 -8 -4 2 -11 11 -8 6 -9 -20 -5 -33 5 -34 5 -15 -9 11 -9 28 -22 38
-30 21 -18 44 -19 50 -2 2 6 7 9 11 5 9 -8 -11 -48 -24 -48 -5 0 -19 10 -32
23 -13 12 -38 33 -56 46 -30 21 -37 22 -77 12 -55 -14 -52 -15 -50 9 1 16 50
80 61 80 2 0 14 -4 29 -10z m63 -29 c3 -8 -1 -12 -9 -9 -7 2 -15 10 -17 17 -3
8 1 12 9 9 7 -2 15 -10 17 -17z m49 3 c-3 -3 -12 -4 -19 -1 -8 3 -5 6 6 6 11
1 17 -2 13 -5z m-366 -20 c12 -15 11 -16 -11 -10 -18 5 -21 4 -10 -3 9 -5 17
-26 18 -46 2 -33 1 -35 -16 -26 -14 7 -18 20 -17 44 2 31 11 57 19 57 2 0 10
-7 17 -16z m35 -36 c-12 -40 -17 -50 -22 -46 -5 6 13 58 20 58 3 0 4 -6 2 -12z
m919 -9 c-4 -5 -12 -9 -18 -8 -9 0 -8 2 1 6 6 2 9 10 6 15 -4 7 -2 8 5 4 6 -4
9 -12 6 -17z m-560 1 c3 -5 1 -10 -4 -10 -6 0 -11 5 -11 10 0 6 2 10 4 10 3 0
8 -4 11 -10z m-730 -41 c-4 -5 -1 -9 4 -9 6 0 11 -7 11 -15 0 -25 -26 -6 -28
21 -1 15 2 23 8 19 6 -4 8 -11 5 -16z m804 -63 c-9 -8 -10 -8 -4 3 6 10 2 12
-16 6 -17 -4 -20 -3 -10 3 8 6 10 15 6 23 -6 9 -3 11 8 6 12 -4 17 -1 18 11 1
9 4 4 6 -12 3 -16 -1 -34 -8 -40z m-241 27 c43 -20 40 -29 -9 -25 -29 3 -39 8
-35 18 4 10 -4 13 -29 12 -20 -1 -32 -5 -28 -11 4 -6 0 -8 -9 -4 -9 3 -21 0
-27 -6 -15 -15 -14 -32 2 -20 21 16 67 33 67 25 0 -4 -28 -23 -62 -41 -35 -19
-76 -44 -93 -56 -37 -27 -67 -42 -41 -21 23 19 17 20 -19 4 -18 -8 -22 -14
-13 -20 9 -5 6 -8 -10 -8 -13 0 -20 -4 -17 -10 4 -6 -1 -7 -12 -3 -16 6 -16 4
2 -17 l20 -23 -21 11 c-11 6 -31 8 -43 5 -18 -5 -19 -8 -9 -21 11 -13 9 -14
-17 -8 l-30 7 28 -19 c20 -13 25 -21 15 -24 -7 -3 -10 -9 -6 -13 10 -10 80 4
73 15 -3 5 -1 11 5 15 6 4 8 9 6 13 -2 4 7 8 20 8 31 2 30 -4 -2 -17 -15 -5
-25 -12 -22 -15 3 -2 17 0 32 6 15 5 25 6 22 1 -3 -4 -20 -14 -38 -21 -18 -7
-47 -19 -65 -26 -44 -20 -70 -17 -87 8 -18 25 -21 68 -6 68 5 0 7 -7 3 -16 -6
-17 15 -64 30 -64 5 0 7 7 3 15 -3 8 -1 15 4 15 17 0 11 27 -7 34 -15 6 -14 8
3 24 11 9 35 26 54 36 19 10 49 31 65 45 17 15 48 39 70 54 22 14 58 39 81 55
64 46 81 47 152 15z m192 -3 c0 -5 -2 -10 -4 -10 -3 0 -8 5 -11 10 -3 6 -1 10
4 10 6 0 11 -4 11 -10z m-734 -21 c9 -16 -20 -41 -39 -33 -9 3 -17 12 -17 19
0 22 44 33 56 14z m298 -18 c-10 -10 -21 -14 -23 -8 -4 10 17 27 33 27 5 0 1
-8 -10 -19z m515 -33 c1 -5 -7 -8 -16 -7 -10 0 -13 3 -7 5 7 3 10 15 8 27 -4
21 -4 21 5 2 5 -11 10 -23 10 -27z m-279 11 c0 -5 4 -7 10 -4 5 3 7 0 4 -7 -7
-18 -86 -75 -147 -106 -29 -15 -54 -29 -57 -33 -3 -3 -16 -9 -30 -13 -25 -7
-25 -7 3 11 15 10 27 21 27 25 0 5 6 8 14 8 8 0 17 7 20 16 3 8 10 12 16 9 18
-11 46 4 47 25 1 14 -4 20 -18 20 -13 0 -18 -4 -13 -12 4 -7 -2 -4 -13 7 -24
24 -13 31 29 16 23 -8 35 -8 47 2 14 11 14 10 2 -5 -20 -26 2 -22 35 7 l29 25
-32 0 c-17 0 -34 -4 -37 -9 -3 -5 -17 -8 -31 -8 -13 0 -22 4 -19 9 3 5 15 6
26 2 13 -4 18 -2 14 4 -6 10 15 17 57 21 9 0 17 -4 17 -10z m-576 -53 c-10
-27 -20 -18 -21 20 -1 33 0 34 13 16 8 -11 11 -27 8 -36z m26 34 c0 -5 -4 -10
-10 -10 -5 0 -10 5 -10 10 0 6 5 10 10 10 6 0 10 -4 10 -10z m380 -39 c0 -5
-10 -13 -21 -16 -17 -6 -18 -9 -8 -16 7 -4 10 -11 6 -15 -3 -4 -13 -1 -21 5
-13 11 -16 8 -22 -13 -7 -28 -24 -36 -24 -12 0 8 12 24 28 35 15 11 32 25 37
30 13 13 25 14 25 2z m495 -78 c-7 -31 -18 -29 -57 8 -18 18 -26 27 -17 21 12
-9 21 -8 37 4 28 19 18 37 -17 30 -24 -5 -24 -4 4 8 29 13 30 13 43 -17 7 -18
10 -42 7 -54z m-685 62 c0 -2 -10 -9 -22 -15 -22 -11 -22 -10 -4 4 21 17 26
19 26 11z m650 -15 c-8 -5 -19 -10 -25 -10 -5 0 -3 5 5 10 8 5 20 10 25 10 6
0 3 -5 -5 -10z m-570 -25 c0 -8 -4 -15 -10 -15 -5 0 -10 7 -10 15 0 8 5 15 10
15 6 0 10 -7 10 -15z m-540 1 c0 -3 -4 -8 -10 -11 -5 -3 -10 -1 -10 4 0 6 5
11 10 11 6 0 10 -2 10 -4z m480 -26 c0 -5 -4 -10 -10 -10 -5 0 -10 5 -10 10 0
6 5 10 10 10 6 0 10 -4 10 -10z m20 -20 c0 -13 -28 -25 -38 -16 -3 4 0 11 8
16 20 13 30 12 30 0z m-163 -31 c-8 -14 -9 -22 -1 -27 6 -4 19 -22 29 -39 11
-18 23 -33 27 -33 4 0 8 -5 8 -11 0 -5 -4 -8 -8 -5 -4 2 -14 0 -22 -5 -11 -8
-4 -9 23 -4 21 3 37 2 37 -4 0 -5 9 -13 20 -16 11 -4 18 -11 15 -16 -4 -5 -14
-2 -22 7 -15 15 -17 15 -24 -3 -7 -19 -69 -32 -69 -14 0 6 -11 6 -29 1 -15 -4
-39 -6 -53 -3 -14 3 -29 0 -32 -6 -4 -6 -15 -11 -24 -11 -12 1 -10 5 8 15 24
14 24 14 3 15 -12 0 -26 -8 -32 -17 -9 -17 -11 -17 -28 1 -17 18 -17 18 6 11
18 -5 22 -4 16 5 -5 9 -4 11 3 6 7 -4 12 -3 12 3 0 7 8 7 26 1 34 -13 64 -13
64 1 0 6 -7 9 -15 5 -8 -3 -15 -1 -15 5 0 6 -10 8 -22 4 -19 -5 -17 -2 7 14
37 26 65 27 65 4 0 -15 -2 -16 -10 -3 -8 13 -10 13 -10 -2 0 -9 4 -20 10 -23
13 -8 52 14 45 26 -4 5 3 9 15 9 12 0 18 5 15 10 -4 6 -11 7 -17 4 -7 -5 -9
-1 -5 9 3 10 2 17 -3 17 -6 0 -10 8 -11 18 -1 11 -4 9 -9 -8 -7 -21 -8 -19 -9
17 -1 47 7 75 20 67 5 -2 3 -14 -4 -25z m-123 -43 c-7 -17 -34 -23 -34 -6 0 9
32 31 38 26 1 -2 0 -11 -4 -20z m-29 -66 c-3 -5 -12 -10 -18 -10 -7 0 -6 4 3
10 19 12 23 12 15 0z m335 -36 c0 -2 -9 -4 -21 -4 -11 0 -18 4 -14 10 5 8 35
3 35 -6z m-351 -62 c31 -11 51 -53 22 -45 -28 8 -50 29 -54 54 -2 13 -2 19 0
12 2 -6 17 -16 32 -21z"/>
<path d="M2704 3498 c-4 -6 2 -7 16 -3 15 5 20 4 16 -4 -4 -6 -1 -11 6 -11 22
0 58 12 58 19 0 10 -90 9 -96 -1z"/>
<path d="M2306 3351 c-19 -7 -19 -8 1 -13 14 -4 24 0 27 8 6 15 1 16 -28 5z"/>
<path d="M2175 3300 c-3 -5 -1 -10 4 -10 6 0 11 5 11 10 0 6 -2 10 -4 10 -3 0
-8 -4 -11 -10z"/>
<path d="M1893 2694 c-7 -3 -9 -12 -6 -20 3 -8 0 -14 -6 -14 -6 0 -11 5 -11
12 0 6 -10 3 -22 -8 -12 -10 -18 -14 -15 -7 4 6 -11 2 -32 -10 -22 -12 -38
-23 -36 -25 2 -2 13 2 25 8 17 9 28 9 45 0 17 -9 28 -9 41 -1 18 10 18 10 -1
11 -15 1 -13 4 10 13 17 7 31 20 31 30 2 17 -2 19 -23 11z"/>
<path d="M1395 2780 c-3 -5 -1 -10 4 -10 6 0 11 5 11 10 0 6 -2 10 -4 10 -3 0
-8 -4 -11 -10z"/>
<path d="M1820 3055 c-6 -8 -9 -19 -5 -24 3 -7 0 -8 -9 -5 -11 4 -16 0 -16
-10 0 -17 25 -22 35 -6 3 5 13 6 22 3 13 -5 15 -2 10 11 -4 10 -7 20 -7 22 0
3 -5 2 -12 -2 -8 -5 -9 -2 -5 9 8 21 3 22 -13 2z"/>
<path d="M1662 2861 c-11 -7 -11 -9 0 -14 9 -3 15 1 15 9 0 8 -1 14 -1 14 -1
0 -7 -4 -14 -9z"/>
<path d="M2208 3939 c18 -19 15 -78 -7 -149 -14 -45 -16 -58 -6 -50 8 7 42 27
77 47 47 26 56 33 34 30 l-30 -5 25 19 24 20 -39 -16 c-48 -19 -52 -19 -36 0
10 12 10 15 -4 15 -13 0 -15 9 -13 47 2 40 -1 48 -18 51 -16 3 -18 1 -7 -9z"/>
<path d="M3332 3918 c-14 -14 -16 -28 -3 -28 9 0 24 30 18 36 -2 2 -9 -2 -15
-8z"/>
<path d="M3350 3900 c0 -13 11 -13 30 0 12 8 11 10 -7 10 -13 0 -23 -4 -23
-10z"/>
<path d="M1478 3785 c-4 -44 -25 -177 -47 -295 -54 -292 -61 -368 -12 -135 49
232 73 394 69 460 -3 45 -4 42 -10 -30z"/>
<path d="M2285 3778 c-43 -23 -85 -53 -85 -61 0 -5 13 1 29 12 16 12 49 30 73
41 26 12 35 20 23 19 -11 0 -29 -5 -40 -11z"/>
<path d="M2240 3701 c-19 -11 -44 -29 -55 -42 -18 -21 -17 -20 15 3 19 15 51
33 70 41 19 9 28 16 20 16 -8 0 -31 -8 -50 -18z"/>
<path d="M3800 3170 c-9 -6 -10 -10 -3 -10 6 0 15 5 18 10 8 12 4 12 -15 0z"/>
<path d="M1740 3105 l-25 -14 25 -9 c17 -6 28 -5 38 4 7 8 19 14 25 15 7 0 3
4 -8 9 -26 11 -26 11 -55 -5z"/>
<path d="M2780 2991 l-105 -7 140 -3 c300 -7 324 -18 208 -95 -37 -25 -64 -46
-60 -46 14 0 102 48 145 79 44 33 53 56 25 65 -33 9 -247 13 -353 7z"/>
<path d="M3390 2990 c-8 -5 -10 -10 -5 -10 6 0 17 5 25 10 8 5 11 10 5 10 -5
0 -17 -5 -25 -10z"/>
<path d="M4220 2940 c-9 -6 -10 -10 -3 -10 6 0 15 5 18 10 8 12 4 12 -15 0z"/>
<path d="M4106 2923 c-6 -14 -5 -15 5 -6 7 7 10 15 7 18 -3 3 -9 -2 -12 -12z"/>
<path d="M1510 2920 c0 -5 5 -10 11 -10 5 0 7 5 4 10 -3 6 -8 10 -11 10 -2 0
-4 -4 -4 -10z"/>
<path d="M1045 2840 c4 -6 11 -8 16 -5 14 9 11 15 -7 15 -8 0 -12 -5 -9 -10z"/>
<path d="M3271 2769 c-80 -40 -162 -116 -266 -248 -83 -106 -138 -158 -227
-220 -27 -17 -48 -36 -48 -42 0 -11 75 30 128 69 53 40 38 4 -25 -58 -32 -31
-71 -66 -88 -77 -16 -12 -26 -25 -22 -29 4 -5 16 -3 25 4 26 18 103 54 108 50
6 -7 -98 -107 -117 -113 -19 -6 -27 -25 -11 -25 5 0 30 7 56 16 26 9 49 14 52
11 3 -2 -51 -47 -120 -98 -69 -52 -126 -98 -126 -103 0 -4 6 -6 13 -3 6 3 49
22 95 42 46 20 86 34 89 31 10 -9 -62 -143 -117 -221 -96 -133 -123 -175 -117
-181 3 -4 23 8 44 25 20 17 41 27 45 23 10 -10 -34 -143 -65 -196 -12 -22 -34
-48 -48 -58 -26 -20 -27 -20 -77 2 -68 29 -79 43 -46 59 21 9 25 17 21 38 -3
19 0 27 14 30 33 9 23 53 -21 103 l-41 45 26 -50 c37 -74 34 -88 -15 -60 -39
22 -46 18 -18 -12 37 -41 41 -60 16 -83 -28 -26 -30 -26 -68 10 -39 36 -49 34
-19 -3 29 -37 88 -70 199 -111 52 -19 103 -37 113 -41 13 -6 16 -3 11 9 -3 9
-1 22 4 29 18 21 70 131 88 183 28 84 133 335 184 439 27 55 62 129 78 165 28
61 104 161 114 150 3 -3 2 -33 -1 -67 -7 -65 2 -86 14 -33 9 41 25 48 47 20
l18 -22 0 48 c0 94 19 120 44 62 37 -88 36 -88 35 -3 -2 106 -1 125 9 125 13
0 30 -42 37 -94 12 -74 26 -65 19 12 -4 39 -2 77 3 86 9 16 11 16 26 2 8 -9
21 -42 28 -73 18 -85 25 -82 20 7 -3 68 -1 80 13 80 16 0 30 -39 42 -123 9
-69 21 -66 16 4 -3 38 -1 59 6 59 15 0 24 -17 42 -83 18 -65 31 -73 43 -27 5
19 16 34 28 37 10 3 19 7 19 10 0 15 -34 64 -51 73 -11 7 -25 25 -31 41 -7 21
-17 29 -33 29 -12 0 -29 10 -37 22 -11 17 -26 22 -76 24 -33 2 -64 -1 -67 -6
-3 -6 -19 -10 -34 -10 -38 0 -133 -89 -159 -148 l-19 -43 -6 42 c-3 26 0 55 7
73 13 30 107 130 140 148 18 10 22 28 6 28 -6 0 -28 -11 -50 -25 -22 -14 -42
-25 -45 -25 -7 0 56 104 68 112 6 4 8 10 5 14 -4 4 -18 -1 -30 -10 -13 -9 -34
-24 -48 -33 -30 -22 -22 -7 29 54 69 84 159 127 244 116 40 -6 52 11 15 21
-49 13 -97 5 -157 -25z"/>
<path d="M3020 2715 c-47 -30 -88 -55 -91 -55 -4 0 -58 -24 -121 -54 -62 -29
-131 -59 -153 -66 -44 -13 -148 -69 -181 -97 -32 -26 -54 -77 -65 -146 -6 -34
-24 -105 -40 -157 -32 -98 -31 -94 -13 -248 4 -38 1 -64 -11 -94 -11 -27 -17
-77 -19 -138 -2 -81 -6 -102 -26 -136 -23 -38 -23 -38 -2 -20 27 24 39 67 47
171 4 44 14 102 22 129 10 30 13 65 9 92 -5 42 -4 44 13 34 21 -11 110 -14
135 -4 33 13 2 24 -63 24 -91 0 -108 16 -92 89 6 28 22 74 36 103 14 28 25 68
25 88 0 36 22 134 40 180 13 31 79 58 233 94 117 28 165 49 244 107 65 48 182
159 168 159 -6 0 -48 -25 -95 -55z"/>
<path d="M1051 2718 c-1 -16 4 -28 9 -28 12 0 12 8 0 35 -8 18 -9 17 -9 -7z"/>
<path d="M909 2725 c-1 -3 -3 -9 -4 -15 -1 -5 -3 -16 -4 -22 -1 -10 -3 -10 -9
-1 -5 8 -12 8 -26 -3 -17 -12 -18 -14 -3 -14 9 0 17 -6 17 -12 0 -9 3 -10 8
-2 4 6 16 16 27 22 15 8 16 12 5 12 -12 1 -12 3 1 8 14 6 15 9 3 20 -8 7 -15
10 -15 7z"/>
<path d="M2825 2700 c-3 -6 1 -7 9 -4 18 7 21 14 7 14 -6 0 -13 -4 -16 -10z"/>
<path d="M829 2693 c-1 -5 -1 -11 -1 -14 1 -4 -8 -5 -18 -2 -11 3 -20 0 -20
-6 0 -6 11 -11 25 -11 15 0 25 6 25 14 0 8 6 17 13 19 7 3 5 6 -5 6 -10 1 -19
-2 -19 -6z"/>
<path d="M1130 2647 c-14 -7 -31 -25 -38 -40 -7 -15 -21 -27 -30 -27 -14 0
-14 -2 -3 -9 15 -10 27 -1 47 34 6 11 25 25 42 30 17 6 34 14 38 18 12 12 -29
8 -56 -6z"/>
<path d="M870 2619 c0 -5 5 -7 10 -4 6 3 10 8 10 11 0 2 -4 4 -10 4 -5 0 -10
-5 -10 -11z"/>
<path d="M838 2613 c7 -3 16 -2 19 1 4 3 -2 6 -13 5 -11 0 -14 -3 -6 -6z"/>
<path d="M2850 2500 c-40 -21 -134 -40 -194 -40 -59 0 -77 -16 -29 -23 102
-17 186 -2 236 43 39 35 34 44 -13 20z"/>
<path d="M998 2438 c-16 -5 -28 -14 -28 -19 0 -13 17 -11 26 2 4 6 19 9 36 5
26 -5 29 -4 18 9 -14 17 -15 17 -52 3z"/>
<path d="M907 2426 c-4 -9 -11 -16 -17 -16 -6 0 -8 5 -5 10 3 6 1 10 -4 10 -6
0 -11 -4 -11 -9 0 -5 -8 -12 -17 -14 -10 -3 -2 -5 17 -6 43 -1 70 13 54 29 -8
8 -13 7 -17 -4z"/>
<path d="M1145 2380 c3 -5 8 -10 11 -10 2 0 4 5 4 10 0 6 -5 10 -11 10 -5 0
-7 -4 -4 -10z"/>
<path d="M1105 2369 c-11 -17 1 -21 15 -4 8 9 8 15 2 15 -6 0 -14 -5 -17 -11z"/>
<path d="M1045 2350 c-3 -5 -2 -10 4 -10 5 0 13 5 16 10 3 6 2 10 -4 10 -5 0
-13 -4 -16 -10z"/>
<path d="M3570 2254 c-6 -14 -10 -31 -10 -37 0 -7 -5 -29 -11 -49 -10 -40 -28
-48 -49 -23 -16 20 -49 19 -72 -2 -17 -15 -20 -15 -42 6 l-24 22 -21 -22 -21
-23 -22 24 -22 23 -21 -28 c-19 -23 -26 -25 -43 -16 -30 16 -37 14 -50 -13 -8
-18 -16 -22 -34 -19 -30 6 -44 -11 -53 -62 -6 -40 -6 -40 9 -13 20 33 102 73
184 89 85 16 248 6 332 -20 36 -12 66 -21 67 -21 6 0 -32 124 -49 163 -24 53
-34 58 -48 21z"/>
<path d="M3298 2030 c-124 -15 -218 -61 -218 -106 0 -16 3 -15 23 3 97 90 394
113 530 42 24 -12 37 -15 35 -7 -8 24 -92 56 -178 67 -94 12 -94 12 -192 1z"/>
<path d="M3269 1946 c-73 -16 -119 -36 -150 -67 -32 -32 -21 -40 18 -13 62 42
136 58 263 58 123 0 194 -16 244 -55 15 -12 26 -16 26 -9 0 20 -56 65 -96 79
-58 19 -228 23 -305 7z"/>
<path d="M2390 1895 c0 -13 80 -77 103 -82 15 -3 27 -9 27 -14 0 -5 -26 -22
-57 -39 -69 -37 -31 -30 47 8 30 15 55 33 55 41 0 8 -19 19 -42 26 -23 7 -62
24 -87 38 -25 14 -46 24 -46 22z"/>
<path d="M3405 1824 c-147 -14 -261 -44 -278 -71 -4 -6 10 -2 31 8 42 20 261
49 367 49 39 -1 87 -7 108 -14 47 -17 49 -10 1 10 -36 15 -158 25 -229 18z"/>
<path d="M1268 1813 c7 -3 16 -2 19 1 4 3 -2 6 -13 5 -11 0 -14 -3 -6 -6z"/>
<path d="M3495 1760 c-4 -7 -21 -10 -39 -7 -19 3 -37 -1 -48 -10 -16 -14 -20
-14 -42 1 -17 11 -27 12 -32 5 -4 -7 -21 -9 -39 -6 -24 4 -35 1 -39 -10 -4
-10 -15 -14 -31 -11 -14 3 -26 0 -29 -8 -3 -9 -17 -12 -36 -10 -32 4 -33 3
-24 -32 5 -18 9 -20 20 -11 11 9 14 5 15 -22 0 -31 1 -32 9 -11 5 12 14 22 19
22 14 0 18 -34 35 -290 l15 -225 -2 274 c-2 207 1 275 10 278 17 6 21 -17 37
-252 l15 -210 -4 242 c-5 244 -1 269 30 243 11 -9 15 -35 15 -99 0 -107 16
-285 35 -382 l14 -74 -5 85 c-24 439 -25 453 -10 468 8 8 21 12 29 9 11 -4 16
-37 21 -144 7 -143 31 -378 45 -448 16 -74 12 5 -14 289 -13 151 -22 282 -19
291 4 9 15 15 28 13 19 -3 21 -14 38 -213 14 -174 50 -513 62 -590 2 -11 4 5
5 35 1 55 -15 239 -44 509 -20 188 -20 250 1 258 32 12 39 -15 45 -190 7 -182
31 -418 37 -357 2 19 -4 144 -13 277 -9 134 -14 247 -10 253 11 18 34 11 51
-16 15 -22 18 -57 18 -250 1 -146 4 -210 9 -182 5 24 6 129 4 235 -3 157 -7
197 -21 217 -20 31 -72 60 -81 46 -9 -15 -36 -12 -56 6 -12 11 -19 12 -24 4z"/>
<path d="M1225 1630 c-3 -5 -1 -10 4 -10 6 0 11 5 11 10 0 6 -2 10 -4 10 -3 0
-8 -4 -11 -10z"/>
<path d="M2202 1463 c-7 -15 -23 -46 -37 -68 -14 -22 -25 -49 -24 -60 0 -11 6
-3 14 19 16 46 48 81 64 72 31 -19 31 -44 0 -101 -16 -31 -29 -61 -27 -67 2
-5 17 18 33 51 29 62 58 80 72 46 9 -24 -24 -128 -47 -147 -23 -19 -25 -28 -6
-28 13 0 66 105 66 132 0 8 3 18 6 21 7 7 46 -11 55 -26 11 -16 -29 -131 -52
-150 -23 -18 -20 -33 4 -24 8 3 24 31 36 64 32 82 35 88 60 91 32 5 36 -22 11
-89 -13 -33 -20 -62 -17 -66 7 -6 8 -3 30 61 17 51 40 67 63 44 14 -13 15 -23
5 -67 -14 -64 -14 -71 -1 -71 6 0 10 12 10 28 0 34 18 100 30 107 13 8 62 -14
91 -41 30 -29 48 -17 21 14 -16 19 -43 30 -205 87 -38 14 -85 35 -105 47 -50
30 -112 88 -112 102 0 7 -6 20 -13 29 -11 16 -13 15 -25 -10z"/>
<path d="M1365 1311 c-128 -59 -170 -216 -92 -337 12 -19 30 -34 41 -34 19 0
87 66 85 84 0 6 -3 5 -6 -1 -2 -7 -9 -13 -15 -13 -5 0 -26 -12 -46 -27 -20
-16 -31 -20 -23 -10 13 17 4 24 -15 10 -5 -5 2 3 15 16 19 18 25 33 24 62 -2
30 3 41 23 54 14 9 28 14 31 11 4 -3 21 6 40 20 18 14 33 22 33 18 0 -4 10 1
22 12 13 10 18 12 11 4 -23 -31 -51 -88 -46 -94 7 -7 55 52 95 117 16 26 32
47 35 47 2 0 -6 -17 -18 -37 -97 -162 -143 -221 -200 -263 l-39 -28 26 -17
c14 -9 32 -14 40 -11 8 3 13 2 10 -3 -8 -13 58 -23 102 -15 113 21 192 111
192 221 0 51 -16 123 -28 123 -4 0 -18 16 -31 35 -48 71 -176 98 -266 56z
m-48 -68 c-4 -3 -2 -11 3 -18 6 -8 5 -18 -4 -30 -12 -16 -16 -17 -30 -6 -14
12 -14 15 1 37 8 13 20 24 26 24 6 0 7 -3 4 -7z m168 -33 c-9 -16 -18 -30 -21
-30 -2 0 2 14 11 30 9 17 18 30 21 30 2 0 -2 -13 -11 -30z m109 -27 c-45 -77
-111 -163 -171 -225 -31 -32 -58 -56 -60 -54 -2 2 13 21 34 42 61 64 129 150
175 223 49 78 64 88 22 14z m17 -16 c-10 -9 -11 -8 -5 6 3 10 9 15 12 12 3 -3
0 -11 -7 -18z m-331 -7 c14 -26 4 -61 -16 -53 -15 5 -18 30 -8 57 8 21 11 20
24 -4z m280 -79 c-5 -11 -15 -23 -21 -27 -6 -3 -3 5 6 20 20 30 30 35 15 7z
m-37 -58 c-6 -16 -5 -17 13 -3 19 14 19 14 0 -8 -11 -12 -22 -20 -24 -17 -11
10 -60 -47 -55 -64 4 -14 3 -14 -6 -1 -10 15 -12 13 -15 -12 0 -6 -8 -13 -16
-15 -12 -4 -12 -3 -2 5 8 5 12 11 10 14 -3 4 93 118 99 118 1 0 -1 -8 -4 -17z"/>
<path d="M3168 1120 c2 -113 5 -212 6 -220 7 -32 4 348 -3 385 -4 22 -6 -52
-3 -165z"/>
<path d="M2130 1203 c0 -21 78 -99 135 -135 73 -46 66 -49 -18 -6 -34 18 -71
33 -81 34 -11 1 -35 18 -53 38 l-33 36 0 -40 c0 -22 -14 -74 -30 -116 -17 -42
-29 -84 -27 -93 3 -14 5 -14 9 -1 4 13 16 47 51 148 7 17 15 32 19 32 11 0 10
-96 -1 -142 -5 -21 -5 -38 -1 -38 8 0 30 109 30 148 0 25 8 27 32 8 17 -13 18
-58 3 -186 -4 -33 -3 -34 10 -16 9 12 15 43 15 75 0 75 10 90 44 67 29 -18 30
-26 17 -107 -17 -104 -31 -141 -48 -135 -23 9 -116 -20 -137 -43 -9 -10 -37
-26 -61 -36 -25 -9 -45 -21 -45 -25 0 -5 12 -2 28 6 15 7 31 14 36 14 6 0 27
12 48 26 40 28 82 27 58 -1 -6 -7 -19 -16 -28 -18 -9 -3 0 -3 21 -2 20 2 37
-1 37 -5 0 -13 -57 -22 -82 -14 -20 6 -21 5 -9 -10 15 -18 53 -21 82 -6 13 7
19 7 19 1 0 -6 -11 -13 -25 -17 -14 -3 -66 -33 -117 -65 -50 -32 -101 -59
-112 -58 -20 0 -20 1 2 9 29 12 28 26 -3 46 -32 21 -32 27 8 47 l32 18 -30 -7
c-58 -11 -74 -46 -30 -66 36 -16 31 -28 -12 -28 -57 0 -70 -13 -39 -38 42 -32
92 -36 168 -12 93 29 163 93 181 168 11 45 15 51 26 38 9 -10 31 -14 77 -14
l64 1 10 36 c5 20 13 77 16 126 7 97 20 138 35 114 4 -8 6 -24 4 -36 -3 -13
-7 -35 -10 -50 l-5 -28 20 24 c11 13 23 41 26 62 4 21 13 44 22 51 13 11 11
13 -9 18 -21 5 -13 11 51 44 41 21 80 43 85 48 6 6 -3 4 -20 -5 -54 -26 -135
-40 -199 -33 -81 8 -155 46 -211 108 -25 27 -45 46 -45 41z m66 -124 c9 -15
144 -79 165 -79 10 0 24 -3 33 -6 13 -5 14 -8 1 -28 -9 -13 -18 -64 -22 -122
-11 -139 -29 -123 -25 23 1 64 -1 113 -5 110 -3 -4 -12 -52 -19 -106 -16 -120
-35 -171 -63 -171 -18 0 -21 6 -21 38 1 20 7 73 15 117 31 167 34 146 -29 188
-31 20 -56 39 -56 42 0 9 19 5 26 -6z m-6 -319 c0 -5 -2 -10 -4 -10 -3 0 -8 5
-11 10 -3 6 -1 10 4 10 6 0 11 -4 11 -10z"/>
<path d="M1447 1153 c-4 -3 -7 -11 -7 -17 0 -6 5 -5 12 2 6 6 9 14 7 17 -3 3
-9 2 -12 -2z"/>
<path d="M3401 1134 c0 -11 3 -14 6 -6 3 7 2 16 -1 19 -3 4 -6 -2 -5 -13z"/>
<path d="M3295 1043 c-32 -8 -55 -34 -54 -62 0 -24 1 -25 9 -5 11 28 46 36
128 28 55 -6 72 -12 95 -35 l28 -29 -3 32 c-4 44 -40 66 -118 72 -36 2 -74 2
-85 -1z"/>
<path d="M1325 1000 c-3 -5 -2 -10 4 -10 5 0 13 5 16 10 3 6 2 10 -4 10 -5 0
-13 -4 -16 -10z"/>
<path d="M2058 864 c14 -27 79 -77 94 -72 6 2 -2 12 -18 22 -16 10 -42 30 -58
45 -24 22 -27 23 -18 5z"/>
<path d="M2005 820 c-30 -58 -12 -75 50 -44 29 14 29 14 3 9 -14 -3 -33 -8
-42 -11 -20 -8 -20 8 -1 46 9 17 13 30 11 30 -3 0 -12 -13 -21 -30z"/>
<path d="M1919 783 c-60 -63 -76 -91 -94 -160 -18 -69 -20 -96 -5 -73 5 8 10
23 10 34 0 28 55 135 100 194 22 28 38 52 37 52 -2 0 -23 -21 -48 -47z"/>
<path d="M3360 812 c-19 -9 -61 -50 -93 -89 -56 -70 -89 -89 -100 -60 -4 8 -6
7 -6 -3 -2 -53 52 -50 95 6 16 20 46 54 67 76 35 35 43 39 80 36 40 -3 42 -5
45 -38 2 -19 9 -42 17 -50 7 -8 22 -33 33 -55 l21 -40 -4 35 -5 35 15 -32 c8
-18 19 -33 24 -33 5 0 12 -14 16 -31 6 -25 2 -34 -20 -55 -18 -17 -33 -23 -44
-18 -9 4 -43 9 -76 12 -51 4 -63 9 -83 33 l-24 29 29 0 c43 0 94 -17 109 -37
7 -10 13 -13 14 -8 0 34 -48 55 -128 55 -54 0 -55 -1 -34 -16 12 -8 29 -29 38
-46 15 -29 15 -31 -2 -24 -11 4 -41 12 -67 18 -35 7 -51 16 -56 31 -8 19 -10
17 -20 -20 -23 -85 6 -98 203 -91 181 6 192 17 166 172 -5 33 -8 61 -7 63 2 1
18 -3 36 -10 29 -11 34 -10 47 7 15 22 19 82 6 90 -5 3 -9 -8 -10 -24 -2 -68
-23 -66 -96 11 -54 56 -105 89 -138 89 -7 0 -29 -8 -48 -18z m185 -339 c-23
-17 -131 -11 -150 8 -7 8 10 10 67 5 51 -5 79 -3 83 4 4 6 10 8 13 5 4 -4 -2
-13 -13 -22z"/>
<path d="M1941 749 c-2 -34 24 -41 70 -18 24 11 33 17 19 14 -65 -18 -78 -17
-83 2 -4 14 -5 14 -6 2z"/>
<path d="M3331 680 c-24 -17 -38 -30 -31 -30 7 0 22 7 32 17 10 9 18 11 18 5
0 -7 -21 -23 -47 -37 -27 -14 -37 -23 -23 -19 39 10 68 32 85 64 9 17 14 30
13 30 -2 0 -23 -14 -47 -30z"/>
<path d="M3423 665 c-15 -16 -1 -36 42 -59 26 -15 27 -16 5 -10 -14 3 -38 18
-54 33 -28 25 -28 25 -16 3 11 -23 96 -69 107 -58 3 3 -8 17 -23 32 -23 21
-25 26 -9 21 l20 -7 -20 15 c-11 9 -25 21 -30 29 -8 11 -13 11 -22 1z m33 -32
c-7 -7 -26 7 -26 19 0 6 6 6 15 -2 9 -7 13 -15 11 -17z"/>
</g>
</svg>
